<svg width="93" height="94" viewBox="0 0 93 94" fill="none" xmlns="http://www.w3.org/2000/svg"><path d="M45.3548 83.4343C65.1771 83.4343 81.2463 67.2398 81.2463 47.2629C81.2463 27.286 65.1771 11.0916 45.3548 11.0916C25.5325 11.0916 9.46338 27.286 9.46338 47.2629C9.46338 67.2398 25.5325 83.4343 45.3548 83.4343Z" stroke="white" stroke-width="4" stroke-miterlimit="10"/><path d="M41.8813 49.0448H43.7118L42.7849 43.4009L41.8813 49.0448Z" fill="white"/><path d="M55.7221 43.1811C55.4573 43.0006 55.1302 42.9064 54.7485 42.9064H53.9307V52.1926H54.8731C55.0834 52.1926 55.2392 52.1769 55.356 52.1533C55.4729 52.1298 55.5975 52.067 55.7221 51.9649C55.8467 51.8629 55.9558 51.7216 56.0493 51.541C56.4621 50.7561 56.6724 49.4059 56.6724 47.4906C56.6724 46.1404 56.5789 45.1278 56.3998 44.4606C56.2128 43.7934 55.9869 43.3617 55.7221 43.1811Z" fill="white"/><path d="M65.988 43.4088C64.3056 34.9154 57.9732 28.4002 49.6702 26.6261C47.7152 26.1944 44.1634 26.0924 42.294 26.3985C37.683 27.1599 33.6873 29.2008 30.5483 32.4114C24.2159 38.8481 22.6581 48.5817 26.6616 56.659C29.6059 62.5934 34.9958 66.7223 41.5541 68.0411C43.3923 68.41 47.3958 68.41 49.234 68.0411C57.794 66.3142 64.2745 59.7832 65.988 51.1564C66.1672 50.2066 66.2451 49.0763 66.2451 47.2865C66.2451 45.4889 66.1672 44.3586 65.988 43.4088ZM33.329 52.5537C33.1498 53.1659 32.9162 53.6212 32.6202 53.9117C32.4332 54.0844 32.2152 54.2099 31.9737 54.2806C31.7322 54.3512 31.4441 54.3905 31.1247 54.3905H29.2476C28.975 54.3905 28.7802 54.257 28.6634 53.9823C28.5466 53.7154 28.492 53.2837 28.492 52.6871V42.404C28.492 41.7996 28.5544 41.3679 28.6712 41.101C28.788 40.8341 28.9827 40.7085 29.2476 40.7085H31.2337C31.5297 40.7085 31.779 40.7477 31.9971 40.8262C32.2152 40.9047 32.4021 41.0617 32.5734 41.2894C32.7214 41.4856 32.8461 41.7289 32.9629 42.0194C33.0719 42.3177 33.1576 42.6395 33.2199 43.0006C33.2822 43.3617 33.3056 43.7385 33.3056 44.1309C33.3056 45.4968 33.0018 46.5016 32.3865 47.1374C33.1966 47.7104 33.5938 48.8251 33.5938 50.4735C33.5938 51.2585 33.5081 51.9414 33.329 52.5537ZM39.4822 54.053C39.4277 54.2335 39.3576 54.3669 39.2719 54.469C39.1785 54.571 39.0772 54.626 38.9604 54.626C38.8202 54.626 38.7033 54.5553 38.6099 54.4062C38.5164 54.257 38.4307 54.0765 38.3606 53.8489C38.2905 53.6212 38.1971 53.2915 38.0802 52.8598L37.5817 51.0151C37.4026 50.34 37.239 49.822 37.0988 49.4687C36.9586 49.1155 36.8106 48.8722 36.6704 48.7387C36.5224 48.6053 36.3433 48.5425 36.1252 48.5425H35.689V52.9383C35.689 53.5192 35.6345 53.9431 35.5177 54.2178C35.4008 54.4925 35.2528 54.626 35.0659 54.626C34.8712 54.626 34.7154 54.4847 34.6064 54.1942C34.4973 53.9117 34.4428 53.4878 34.4428 52.9383V42.4119C34.4428 41.8153 34.5051 41.3836 34.6219 41.1167C34.7388 40.8498 34.9335 40.7163 35.2061 40.7163H37.2312C37.5116 40.7163 37.7531 40.7399 37.9478 40.7948C38.1425 40.8498 38.3217 40.9518 38.4853 41.1167C38.68 41.2972 38.8513 41.5562 38.9993 41.8938C39.1473 42.2313 39.2564 42.6238 39.3343 43.0634C39.4121 43.503 39.4511 43.9818 39.4511 44.4763C39.4511 45.4968 39.3187 46.3132 39.0616 46.9176C38.8046 47.5299 38.4152 47.9616 37.8855 48.2128C38.1036 48.4718 38.3139 48.8565 38.5164 49.3667C38.7189 49.8769 38.8981 50.4185 39.0538 50.9916C39.2096 51.5646 39.3343 52.0827 39.4199 52.5458C39.5056 53.0089 39.5523 53.3308 39.5523 53.5035C39.5601 53.6919 39.529 53.8724 39.4822 54.053ZM45.4953 54.2256C45.3785 54.4925 45.2305 54.6181 45.0669 54.6181C44.9657 54.6181 44.8878 54.5789 44.8177 54.5004C44.7476 54.4219 44.6853 54.3198 44.6385 54.1864C44.5918 54.0529 44.5373 53.8489 44.4827 53.5741C44.4282 53.2994 44.3815 53.056 44.3425 52.8441L44.0466 51.125H41.5463L41.2503 52.8755C41.1335 53.5584 41.04 54.0216 40.9544 54.2649C40.8765 54.5004 40.744 54.626 40.5571 54.626C40.4013 54.626 40.2611 54.5004 40.1443 54.2413C40.0275 53.9902 39.9652 53.6997 39.9652 53.37C39.9652 53.1816 39.9807 52.9932 40.0041 52.7892C40.0275 52.5851 40.0742 52.3103 40.1443 51.9571L41.7177 43.0712C41.7644 42.82 41.8189 42.5139 41.8812 42.1528C41.9435 41.7917 42.0136 41.5013 42.0837 41.258C42.1538 41.0225 42.2473 40.8341 42.3641 40.6849C42.481 40.5358 42.6212 40.4651 42.7925 40.4651C42.9639 40.4651 43.1119 40.5358 43.2287 40.6849C43.3456 40.8341 43.439 41.0225 43.5091 41.2501C43.5792 41.4778 43.6415 41.7289 43.6883 41.9958C43.735 42.2627 43.7973 42.616 43.8752 43.0555L45.4797 51.8786C45.6043 52.5537 45.6667 53.0403 45.6667 53.3465C45.6667 53.6762 45.6121 53.9666 45.4953 54.2256ZM51.524 52.8206C51.524 54.0216 51.2981 54.6181 50.8541 54.6181C50.7451 54.6181 50.6438 54.5789 50.5503 54.5082C50.4569 54.4376 50.379 54.3198 50.3011 54.1707C50.2232 54.0216 50.1531 53.8332 50.083 53.6212C50.0129 53.4093 49.9506 53.1973 49.8805 52.9854L47.5438 45.018V53.0325C47.5438 53.5584 47.4893 53.9509 47.3802 54.2178C47.2712 54.4847 47.131 54.6181 46.9596 54.6181C46.7805 54.6181 46.6403 54.4847 46.539 54.2099C46.43 53.9431 46.3755 53.5427 46.3755 53.0325V42.4825C46.3755 42.0351 46.3988 41.6818 46.4456 41.4307C46.5001 41.1481 46.5858 40.9204 46.7104 40.7477C46.835 40.5672 46.9674 40.4808 47.1076 40.4808C47.2167 40.4808 47.3179 40.5201 47.3958 40.5986C47.4737 40.6771 47.5438 40.787 47.6061 40.9283C47.6684 41.0696 47.7307 41.2423 47.793 41.4621C47.8554 41.6818 47.9177 41.9095 47.9878 42.145L50.379 50.2066V42.0665C50.379 41.5406 50.4335 41.1402 50.5348 40.8733C50.636 40.6064 50.7762 40.4808 50.9476 40.4808C51.1267 40.4808 51.2669 40.6143 51.3682 40.8733C51.4694 41.1324 51.524 41.5327 51.524 42.0665V52.8206ZM57.833 49.767C57.7707 50.4421 57.6694 51.0544 57.537 51.6038C57.4046 52.1533 57.2332 52.6322 57.0229 53.0639C56.8594 53.3936 56.6802 53.6605 56.4855 53.8567C56.2908 54.053 56.0805 54.1942 55.8546 54.2806C55.6287 54.3591 55.3795 54.3983 55.0913 54.3983H53.4712C53.2453 54.3983 53.0739 54.3198 52.9571 54.1707C52.8403 54.0216 52.7702 53.8018 52.7312 53.527C52.6923 53.2523 52.6767 52.8912 52.6767 52.4516V42.4119C52.6767 41.8153 52.739 41.3836 52.8559 41.1167C52.9727 40.8498 53.1674 40.7163 53.44 40.7163H55.0601C55.4807 40.7163 55.8468 40.8027 56.1428 40.9754C56.4466 41.1481 56.7192 41.4778 56.9606 41.9566C57.5993 43.1733 57.9187 45.0258 57.9187 47.5142C57.9342 48.3384 57.8953 49.0841 57.833 49.767ZM63.1918 52.5144C62.9971 53.1738 62.7167 53.6919 62.3506 54.0608C61.9845 54.4376 61.5483 54.6181 61.042 54.6181C60.4345 54.6181 59.936 54.3669 59.5466 53.8567C59.2662 53.4878 59.0403 53.0011 58.8689 52.3888C58.6976 51.7765 58.6041 51.18 58.6041 50.5991C58.6041 50.2616 58.6586 49.979 58.7599 49.7356C58.8611 49.4923 59.0013 49.3745 59.1571 49.3745C59.2895 49.3745 59.3986 49.4687 59.492 49.6571C59.5855 49.8455 59.6634 50.1203 59.7257 50.4892C59.8036 50.9209 59.8893 51.2899 59.9827 51.5803C60.0762 51.8707 60.2008 52.1141 60.3644 52.3025C60.5202 52.4987 60.7383 52.5929 61.0031 52.5929C61.3692 52.5929 61.6729 52.4045 61.8988 52.0199C62.1247 51.6352 62.2415 51.1564 62.2415 50.5834C62.2415 50.1281 62.1792 49.7592 62.0546 49.4766C61.93 49.194 61.7664 48.9742 61.5717 48.8251C61.377 48.6759 61.1121 48.5189 60.785 48.3462C60.341 48.1186 59.975 47.8439 59.679 47.5377C59.383 47.2316 59.1415 46.8077 58.9702 46.2818C58.7988 45.748 58.7054 45.0886 58.7054 44.2958C58.7054 43.5422 58.7988 42.875 58.978 42.2863C59.1571 41.6975 59.4297 41.2501 59.7802 40.9361C60.1307 40.6221 60.5435 40.4651 61.0109 40.4651C61.3848 40.4651 61.7119 40.5672 61.9923 40.7791C62.2649 40.9911 62.4986 41.2658 62.6777 41.6112C62.8569 41.9566 62.9893 42.3177 63.075 42.6945C63.1606 43.0712 63.1996 43.448 63.1996 43.8091C63.1996 44.1388 63.1451 44.4371 63.0438 44.6961C62.9425 44.9552 62.8101 45.0886 62.6544 45.0886C62.5141 45.0886 62.4051 45.0101 62.3272 44.8531C62.2493 44.6961 62.1714 44.4371 62.0858 44.076C61.9767 43.5579 61.8365 43.1576 61.6807 42.8671C61.525 42.5767 61.2757 42.4354 60.9252 42.4354C60.6059 42.4354 60.341 42.5924 60.1463 42.9064C59.9516 43.2204 59.8503 43.5972 59.8503 44.0368C59.8503 44.3115 59.8815 44.547 59.9516 44.7432C60.0217 44.9395 60.1152 45.1122 60.232 45.2535C60.3488 45.3947 60.4657 45.5125 60.5903 45.591C60.7071 45.6695 60.9096 45.7872 61.1822 45.9442C61.5327 46.1248 61.8443 46.321 62.1247 46.5408C62.4051 46.7606 62.6466 47.0196 62.8413 47.3336C63.036 47.6476 63.1918 48.0401 63.3008 48.5111C63.4099 48.9899 63.4644 49.5708 63.4644 50.2616C63.48 51.1093 63.3787 51.855 63.1918 52.5144Z" fill="white"/><path d="M38.1892 44.6491C38.1892 44.2723 38.1425 43.9347 38.0568 43.6443C37.9712 43.3539 37.8465 43.1419 37.6985 42.9928C37.5505 42.8593 37.2701 42.7887 36.8418 42.7887H35.6968V46.5487H36.8106C37.1066 46.5487 37.3636 46.4937 37.5661 46.376C37.7686 46.2583 37.9244 46.062 38.0335 45.7873C38.1347 45.5204 38.1892 45.1358 38.1892 44.6491Z" fill="white"/><path d="M31.592 46.1326C31.7634 45.9992 31.888 45.7558 31.9815 45.3869C32.0516 45.1279 32.0827 44.8296 32.0827 44.5077C32.0827 43.817 31.9737 43.3617 31.7556 43.134C31.5375 42.9064 31.1948 42.7965 30.743 42.7965H29.7305V46.3289H30.8677C31.187 46.3289 31.4207 46.2661 31.592 46.1326Z" fill="white"/><path d="M31.0312 48.3148H29.7383V52.3103H31.078C31.9192 52.3103 32.3398 51.6352 32.3398 50.2851C32.3398 49.5943 32.2307 49.0919 32.0127 48.7858C31.7868 48.4718 31.4596 48.3148 31.0312 48.3148Z" fill="white"/><path d="M44.5059 17.8738C44.1787 18.9649 43.3843 19.7655 42.473 20.0638C41.9589 20.2287 41.9667 20.841 42.473 21.0136C43.3843 21.3119 44.1787 22.1204 44.4981 23.2037C44.6539 23.7139 45.5107 23.7139 45.6586 23.2037C45.9858 22.1126 46.7725 21.3119 47.6916 21.0136C48.2056 20.8488 48.2056 20.2365 47.6994 20.0638C46.788 19.7655 45.9936 18.957 45.6664 17.8738C45.5963 17.654 45.3782 17.4891 45.0901 17.4891C44.8019 17.4891 44.5682 17.6618 44.5059 17.8738Z" fill="white"/><path d="M58.1988 21.6887C57.8716 22.7798 57.0771 23.5805 56.1658 23.8788C55.6518 24.0436 55.6596 24.6559 56.1658 24.8286C57.0771 25.1269 57.8716 25.9354 58.191 27.0186C58.3467 27.5289 59.2035 27.5289 59.3515 27.0186C59.6787 25.9275 60.4653 25.1269 61.3844 24.8286C61.8985 24.6637 61.8985 24.0515 61.3922 23.8788C60.4809 23.5805 59.6864 22.772 59.3593 21.6887C59.2892 21.4689 59.0711 21.3041 58.7829 21.3041C58.4869 21.3041 58.2611 21.4768 58.1988 21.6887Z" fill="white"/><path d="M67.7715 31.4224C67.4444 32.5135 66.6499 33.3141 65.7386 33.6124C65.2245 33.7773 65.2323 34.3895 65.7386 34.5622C66.6499 34.8605 67.4444 35.669 67.7637 36.7523C67.9195 37.2625 68.7763 37.2625 68.9243 36.7523C69.2514 35.6612 70.0381 34.8605 70.9572 34.5622C71.4713 34.3974 71.4713 33.7851 70.965 33.6124C70.0537 33.3141 69.2592 32.5056 68.9321 31.4224C68.862 31.2026 68.6439 31.0377 68.3557 31.0377C68.0597 31.0377 67.8338 31.2104 67.7715 31.4224Z" fill="white"/><path d="M71.8374 45.3083C71.5103 46.3994 70.7158 47.2001 69.8045 47.4984C69.2904 47.6632 69.2982 48.2755 69.8045 48.4482C70.7158 48.7465 71.5103 49.555 71.8296 50.6383C71.9854 51.1485 72.8422 51.1485 72.9902 50.6383C73.3173 49.5472 74.104 48.7465 75.0231 48.4482C75.5372 48.2834 75.5372 47.6711 75.0309 47.4984C74.1196 47.2001 73.3251 46.3916 72.998 45.3083C72.9279 45.0886 72.7098 44.9237 72.4216 44.9237C72.1256 44.9237 71.8997 45.0964 71.8374 45.3083Z" fill="white"/><path d="M67.5381 59.1631C67.211 60.2542 66.4165 61.0549 65.5052 61.3531C64.9911 61.518 64.9989 62.1303 65.5052 62.303C66.4165 62.6012 67.211 63.4098 67.5303 64.493C67.6861 65.0033 68.5429 65.0033 68.6909 64.493C69.018 63.4019 69.8047 62.6012 70.7238 62.303C71.2379 62.1381 71.2378 61.5258 70.7316 61.3531C69.8203 61.0549 69.0258 60.2463 68.6987 59.1631C68.6286 58.9433 68.4105 58.7784 68.1223 58.7784C67.8263 58.7784 67.6004 58.9511 67.5381 59.1631Z" fill="white"/><path d="M57.8408 68.4571C57.5137 69.5482 56.7192 70.3489 55.8079 70.6472C55.2939 70.812 55.3016 71.4243 55.8079 71.597C56.7192 71.8953 57.5137 72.7038 57.8331 73.7871C57.9888 74.2973 58.8456 74.2973 58.9936 73.7871C59.3207 72.696 60.1074 71.8953 61.0265 71.597C61.5406 71.4322 61.5406 70.8199 61.0343 70.6472C60.123 70.3489 59.3285 69.5404 59.0014 68.4571C58.9313 68.2374 58.7132 68.0725 58.425 68.0725C58.129 68.0725 57.9032 68.2452 57.8408 68.4571Z" fill="white"/><path d="M44.062 71.5028C43.7349 72.5939 42.9404 73.3946 42.0291 73.6929C41.5151 73.8577 41.5228 74.47 42.0291 74.6427C42.9404 74.941 43.7349 75.7495 44.0542 76.8327C44.21 77.343 45.0668 77.343 45.2148 76.8327C45.5419 75.7416 46.3286 74.941 47.2477 74.6427C47.7618 74.4778 47.7618 73.8656 47.2555 73.6929C46.3442 73.3946 45.5497 72.5861 45.2226 71.5028C45.1525 71.283 44.9344 71.1182 44.6462 71.1182C44.358 71.1182 44.1243 71.2909 44.062 71.5028Z" fill="white"/><path d="M29.9873 67.5151C29.6602 68.6062 28.8657 69.4069 27.9544 69.7052C27.4403 69.87 27.4481 70.4823 27.9544 70.655C28.8657 70.9533 29.6602 71.7618 29.9795 72.8451C30.1353 73.3553 30.9921 73.3553 31.1401 72.8451C31.4672 71.754 32.2539 70.9533 33.173 70.655C33.6871 70.4902 33.6871 69.8779 33.1808 69.7052C32.2695 69.4069 31.475 68.5984 31.1479 67.5151C31.0778 67.2953 30.8597 67.1305 30.5715 67.1305C30.2755 67.1305 30.0496 67.3032 29.9873 67.5151Z" fill="white"/><path d="M21.3574 58.1269C21.0303 59.2181 20.2358 60.0187 19.3245 60.317C18.8105 60.4818 18.8183 61.0941 19.3245 61.2668C20.2358 61.5651 21.0303 62.3736 21.3497 63.4569C21.5054 63.9671 22.3622 63.9671 22.5102 63.4569C22.8373 62.3658 23.624 61.5651 24.5431 61.2668C25.0572 61.102 25.0572 60.4897 24.5509 60.317C23.6396 60.0187 22.8451 59.2102 22.518 58.1269C22.4479 57.9072 22.2298 57.7423 21.9416 57.7423C21.6534 57.7423 21.4198 57.915 21.3574 58.1269Z" fill="white"/><path d="M17.4004 44.5941C17.0733 45.6852 16.2788 46.4859 15.3675 46.7842C14.8534 46.949 14.8612 47.5613 15.3675 47.734C16.2788 48.0323 17.0733 48.8408 17.3926 49.924C17.5484 50.4343 18.4052 50.4343 18.5532 49.924C18.8803 48.8329 19.667 48.0323 20.5861 47.734C21.1002 47.5691 21.1002 46.9569 20.5939 46.7842C19.6826 46.4859 18.8881 45.6774 18.561 44.5941C18.4909 44.3743 18.2728 44.2095 17.9846 44.2095C17.6886 44.2173 17.4627 44.39 17.4004 44.5941Z" fill="white"/><path d="M20.8902 31.4224C20.563 32.5135 19.7686 33.3141 18.8572 33.6124C18.3432 33.7773 18.351 34.3895 18.8572 34.5622C19.7686 34.8605 20.563 35.669 20.8824 36.7523C21.0382 37.2625 21.8949 37.2625 22.0429 36.7523C22.3701 35.6612 23.1567 34.8605 24.0758 34.5622C24.5899 34.3974 24.5899 33.7851 24.0836 33.6124C23.1723 33.3141 22.3778 32.5056 22.0507 31.4224C21.9806 31.2026 21.7625 31.0377 21.4743 31.0377C21.1861 31.0377 20.9525 31.2104 20.8902 31.4224Z" fill="white"/><path d="M29.9873 22.4894C29.6602 23.5805 28.8657 24.3811 27.9544 24.6794C27.4403 24.8443 27.4481 25.4566 27.9544 25.6292C28.8657 25.9275 29.6602 26.736 29.9795 27.8193C30.1353 28.3295 30.9921 28.3295 31.1401 27.8193C31.4672 26.7282 32.2539 25.9275 33.173 25.6292C33.6871 25.4644 33.6871 24.8521 33.1808 24.6794C32.2695 24.3811 31.475 23.5726 31.1479 22.4894C31.0778 22.2696 30.8597 22.1047 30.5715 22.1047C30.2833 22.1047 30.0496 22.2774 29.9873 22.4894Z" fill="white"/></svg>