<svg width="120" height="120" viewBox="0 0 120 120" fill="none" xmlns="http://www.w3.org/2000/svg"><path d="M59.7 11.8899C54.62 11.8899 50.5 16.0499 50.5 21.1899C50.5 26.3299 54.62 30.4899 59.7 30.4899C64.78 30.4799 68.9 26.3199 68.9 21.1899C68.9 16.0499 64.78 11.8899 59.7 11.8899Z" fill="#1D1D1D"/><path d="M65.8304 32.0398H65.4704L65.1504 32.1998C61.7204 33.9298 57.6904 33.9298 54.2504 32.1998L53.9304 32.0398H53.5704C49.3404 32.0398 45.9104 35.5098 45.9004 39.7898V49.0898C45.9004 51.6598 47.9604 53.7398 50.5004 53.7398H68.9004C71.4404 53.7398 73.5004 51.6598 73.5004 49.0898V39.7898C73.5004 35.5098 70.0704 32.0398 65.8304 32.0398Z" fill="#1D1D1D"/><path d="M91.9002 63.0398C86.8202 63.0398 82.7002 67.1998 82.7002 72.3398C82.7002 77.4798 86.8202 81.6398 91.9002 81.6398C96.9802 81.6398 101.1 77.4798 101.1 72.3398C101.1 67.1998 96.9802 63.0398 91.9002 63.0398Z" fill="#1D1D1D"/><path d="M98.0306 83.1899H97.6706L97.3506 83.3499C93.9206 85.0799 89.8906 85.0799 86.4506 83.3499L86.1306 83.1899H85.7706C81.5406 83.1999 78.1106 86.6599 78.1006 90.9399V100.24C78.1006 102.81 80.1606 104.89 82.7006 104.89H101.101C103.641 104.89 105.701 102.81 105.701 100.24V90.9399C105.691 86.6599 102.271 83.1899 98.0306 83.1899Z" fill="#1D1D1D"/><path d="M27.4998 63.0398C22.4198 63.0398 18.2998 67.1998 18.2998 72.3398C18.2998 77.4798 22.4198 81.6398 27.4998 81.6398C32.5798 81.6398 36.6998 77.4798 36.6998 72.3398C36.6998 67.1998 32.5798 63.0398 27.4998 63.0398Z" fill="#1D1D1D"/><path d="M33.6302 83.1899H33.2702L32.9502 83.3499C29.5202 85.0799 25.4902 85.0799 22.0502 83.3499L21.7302 83.1899H21.3702C17.1402 83.1999 13.7102 86.6599 13.7002 90.9399V100.24C13.7002 102.81 15.7602 104.89 18.3002 104.89H36.7002C39.2402 104.89 41.3002 102.81 41.3002 100.24V90.9399C41.3002 86.6599 37.8702 83.1899 33.6302 83.1899Z" fill="#1D1D1D"/><path d="M23.9297 60.41C22.8897 60.38 22.0397 59.56 21.9897 58.51C21.9797 58.27 21.1497 34.76 42.8097 24.87C43.8197 24.41 44.9997 24.85 45.4597 25.86C45.9197 26.86 45.4797 28.05 44.4697 28.51C25.2997 37.25 25.9397 57.46 25.9797 58.32C26.0297 59.42 25.1697 60.36 24.0697 60.4C24.0197 60.41 23.9797 60.41 23.9297 60.41Z" fill="#1D1D1D"/><path d="M41.5898 36.5501C40.7698 36.2901 40.3198 35.4001 40.6098 34.5801L43.3698 26.8201L35.4698 24.5801C34.6598 24.3501 34.1898 23.5001 34.4498 22.6901C34.6898 21.9201 35.4998 21.4701 36.2898 21.6901L46.5398 24.5401C46.9998 24.6701 47.2498 25.1501 47.0898 25.6001L43.5098 35.6001C43.2198 36.3901 42.3798 36.8001 41.5898 36.5501Z" fill="#1D1D1D"/><path d="M72.6504 24.4599C73.1104 23.5299 74.2204 23.0999 75.2004 23.5099C75.4204 23.5999 97.0704 32.8099 96.8504 56.6199C96.8404 57.7299 95.9404 58.6099 94.8304 58.5999C93.7304 58.5899 92.8404 57.6899 92.8504 56.5799C93.0504 35.5199 74.4604 27.5399 73.6704 27.1999C72.6504 26.7799 72.1704 25.6099 72.5904 24.5899C72.6104 24.5499 72.6304 24.4999 72.6504 24.4599Z" fill="#1D1D1D"/><path d="M86.7701 50.5699C87.3601 49.9299 88.3501 49.9099 88.9701 50.5199L94.8301 56.2999L100.21 50.0899C100.76 49.4499 101.73 49.3899 102.36 49.9599C102.96 50.5099 103.02 51.4299 102.49 52.0499L95.5601 60.1299C95.2501 60.4899 94.7001 60.5099 94.3701 60.1799L86.8301 52.6999C86.2401 52.1099 86.2201 51.1699 86.7701 50.5699Z" fill="#1D1D1D"/><path d="M75.2899 90.19C75.9699 90.97 75.9699 92.14 75.2599 92.85C75.0999 93.01 61.8599 99.51 46.4799 93.32C45.4599 92.91 44.9999 91.71 45.3899 90.73C45.7899 89.74 46.9099 89.32 47.9199 89.76C59.7099 94.93 69.6899 91.05 72.4499 90.03C73.4399 89.66 74.4199 89.32 75.1999 90.1C75.2299 90.12 75.2599 90.15 75.2899 90.19Z" fill="#1D1D1D"/><path d="M55.4997 86.69C55.8697 87.47 55.5397 88.37 54.7797 88.68L47.4797 91.63L51.2297 98.91C51.6197 99.66 51.3297 100.55 50.5897 100.88C49.8797 101.2 49.0197 100.89 48.6497 100.17L43.7597 90.77C43.5397 90.35 43.7197 89.85 44.1297 89.68L53.5697 85.89C54.2897 85.59 55.1497 85.95 55.4997 86.69Z" fill="#1D1D1D"/></svg>