<svg width="130" height="54" viewBox="0 0 130 54" fill="none" xmlns="http://www.w3.org/2000/svg"><path d="M17.2634 46.5295C13.6887 46.5295 10.2526 45.9559 7.06592 44.9235L21.5585 53.6129C22.4175 54.1291 23.4982 54.1291 24.385 53.6129L44.5305 41.5682C45.3895 41.052 45.9437 40.077 45.9437 39.0446V27.2007C42.4522 38.3563 30.9246 46.5295 17.2634 46.5295Z" fill="url(#paint0_linear_1916_7707)"/><path d="M44.5307 12.4318L24.3852 0.38715C23.5262 -0.12905 22.4455 -0.12905 21.5587 0.38715L1.41323 12.4318C0.526499 12.948 0 13.8944 0 14.9554V16.2746V39.0448C0 40.0772 0.526499 41.0522 1.41323 41.5684L7.06616 44.9524C10.2529 45.9848 13.689 46.5583 17.2636 46.5583C30.9249 46.5583 42.4247 38.3852 45.9439 27.2295V14.9554C45.9439 13.8944 45.4174 12.948 44.5307 12.4318Z" fill="url(#paint1_linear_1916_7707)"/><path d="M21.3149 11.5001L13.5259 16.4507H22.3841V11.3553L21.9814 11.3553C21.807 11.3482 21.5053 11.3891 21.3149 11.5001Z" fill="url(#paint2_linear_1916_7707)"/><path d="M20.6942 12.6846C20.6703 12.7338 20.6225 12.7831 20.5986 12.8324C20.6225 12.7585 20.6464 12.7092 20.6942 12.6846Z" fill="url(#paint3_linear_1916_7707)"/><path d="M25.0263 23.2538H22.7886V28.6185H24.704C24.704 28.6185 27.5972 28.8216 30.3587 27.097C31.4061 26.4565 32.2869 25.5203 33.0487 24.3377C33.8104 23.1552 34.1913 21.7017 34.1913 20.0264C34.1913 19.0409 34.0723 18.154 33.858 17.3164C31.1918 23.7465 25.7404 23.2784 25.0263 23.2538Z" fill="url(#paint4_linear_1916_7707)"/><path d="M31.7396 13.6702C30.335 12.3398 28.1667 11.3543 25.7882 11.3543H25.6692C25.6454 11.3543 24.8033 11.3543 24.8033 11.3543L21.4385 11.367L20.9828 11.3543C20.5263 11.3459 20.0155 11.4979 19.8373 11.6253L11.8599 16.5779L19.9237 16.578H25.0741C25.9311 16.6765 26.6813 16.7313 27.4286 17.5972C27.8684 18.1068 27.9783 19.0901 27.9783 20.1249C27.9783 21.1596 27.7165 21.9233 27.1927 22.4653C26.669 22.9827 25.9549 23.2537 25.0741 23.2537C25.7882 23.3029 31.2396 23.7464 33.9058 17.341C33.5011 15.8874 32.787 14.6556 31.7396 13.6702Z" fill="url(#paint5_linear_1916_7707)"/><path d="M19.7666 42.6172L28.0727 38.3869C28.5678 38.0769 28.8896 37.5086 28.8896 36.8887V32.4805L19.7666 36.8887V42.6172Z" fill="url(#paint6_linear_1916_7707)"/><path d="M16.6705 23.3278L16.5039 28.6246H23.7883L24.4073 23.2539L16.6705 23.3278Z" fill="url(#paint7_linear_1916_7707)"/><path d="M19.7831 28.7103C19.7831 28.7103 19.7831 27.3863 19.7831 26.6718C19.7831 25.9574 19.8608 23.5493 21.7891 23.3276C22.0509 23.303 22.5984 23.2783 22.5984 23.2783H16.9649C15.8461 23.2783 14.8618 24.7741 14.8618 25.9074V39.0301L19.7831 42.5974C19.7831 42.5974 19.7831 29.2199 19.7831 28.7103Z" fill="url(#paint8_linear_1916_7707)"/><g clip-path="url(#clip0_1916_7707)"><path d="M65.634 14.1753C67.9859 14.1753 69.9914 15.0291 71.6576 16.7343C73.3215 18.4419 74.1546 20.4973 74.1546 22.9076C74.1546 25.3155 73.3215 27.3733 71.6576 29.0809C69.9914 30.7885 67.9859 31.6399 65.634 31.6399H59.7228V39.9957H55.2788V18.7297V14.1753H65.634ZM65.634 27.0855C66.7596 27.0855 67.7215 26.6778 68.5171 25.8624C69.3128 25.0469 69.7106 24.0612 69.7106 22.9076C69.7106 21.754 69.3128 20.7683 68.5171 19.9529C67.7215 19.1374 66.7596 18.7297 65.634 18.7297H59.7228V31.1507C59.8445 30.0211 60.3289 29.0617 61.1737 28.2727C62.0185 27.4812 63.0037 27.0879 64.1293 27.0879H65.634V27.0855Z" fill="#0067C6"/><path d="M80.9831 39.955V39.9933H76.5415V14.1753C77.7654 14.1753 78.8115 14.6214 79.682 15.5112C80.5502 16.4009 80.9855 17.4754 80.9855 18.7297V35.4029H84.5846V36.2687C84.5846 37.2976 84.236 38.1682 83.5386 38.8853C82.8389 39.5976 81.9871 39.955 80.9831 39.955Z" fill="#0067C6"/><path d="M95.0849 39.9932C92.8571 39.9932 90.9475 39.1778 89.3562 37.5469C87.7649 35.9161 86.9692 33.959 86.9692 31.6758C86.9692 29.3926 87.7649 27.4356 89.3562 25.8047C90.9475 24.1738 92.8571 23.3584 95.0849 23.3584C96.358 23.3584 97.5819 23.6606 98.7566 24.2626V23.3584C99.9805 23.3584 101.027 23.8045 101.897 24.6943C102.765 25.584 103.201 26.6585 103.201 27.9128V39.9932H98.7566V39.089C97.5819 39.6934 96.358 39.9932 95.0849 39.9932ZM97.6755 29.0233C96.9524 28.2846 96.0912 27.9128 95.0873 27.9128C94.0833 27.9128 93.2198 28.2822 92.499 29.0233C91.7759 29.7643 91.4155 30.6469 91.4155 31.6758C91.4155 32.7047 91.7759 33.5897 92.499 34.3284C93.2198 35.0694 94.0833 35.4388 95.0873 35.4388C96.0912 35.4388 96.9547 35.0694 97.6755 34.3284C98.3962 33.5897 98.759 32.7047 98.759 31.6758C98.7566 30.6469 98.3962 29.7619 97.6755 29.0233Z" fill="#0067C6"/><path d="M116.055 23.3583C116.055 24.4879 115.706 25.4664 115.009 26.2938C114.312 27.1213 113.436 27.6369 112.383 27.836V31.6757C112.383 32.7046 112.744 33.5896 113.467 34.3282C114.188 35.0693 115.051 35.4387 116.055 35.4387V39.9931C113.827 39.9931 111.925 39.1849 110.345 37.566C108.765 35.9471 107.977 33.9853 107.977 31.6757V27.9127H103.975C103.975 26.7591 104.361 25.7494 105.131 24.8836C105.901 24.0178 106.851 23.5238 107.977 23.3966V22.7563C107.977 21.6531 108.405 20.7057 109.262 19.9143C110.118 19.1228 111.159 18.7295 112.383 18.7295V23.3583H116.055Z" fill="#0067C6"/><path d="M128.093 30.5103C127.475 30.0594 126.134 29.172 124.061 29.0089C123.822 28.9897 123.628 29.0641 122.933 28.9034C122.729 28.8554 122.43 28.7979 122.296 28.4261C122.257 28.3158 122.249 28.2151 122.254 28.1191C122.254 28.1119 122.249 28.1095 122.249 28.1023C122.249 28.0927 122.257 28.0832 122.257 28.0736C122.266 27.992 122.285 27.9177 122.315 27.8481C122.46 27.4764 122.891 27.1574 123.478 27.1166C124.082 27.0759 124.564 27.3589 124.775 27.781C124.875 28.0328 125.088 28.4237 125.362 28.4237H129.101C129.101 27.0711 128.554 25.9079 127.456 24.9365C126.359 23.9652 125.039 23.4688 123.494 23.4424C121.95 23.4688 120.635 23.9652 119.551 24.9365C118.468 25.9079 117.925 27.0687 117.925 28.4237C117.925 29.7788 118.468 30.9396 119.551 31.9109C120.635 32.8822 121.95 33.3667 123.494 33.3667C124.117 33.3667 124.627 33.4698 125.027 33.6737C125.425 33.8775 125.624 34.1605 125.624 34.5155C125.624 34.7985 125.474 35.199 125.114 35.4412C124.753 35.6835 124.302 35.813 123.778 35.8394C123.104 35.8394 122.556 35.4868 122.182 35.0527C121.882 34.6186 121.459 34.4004 120.911 34.4004H117.508C117.483 35.7794 117.951 36.993 118.91 38.041C119.87 39.0891 121.009 39.7702 122.505 40.0508C122.781 40.1036 123.333 40.1875 123.752 40.1875C124.168 40.1875 124.723 40.1252 124.948 40.0748C126.394 39.7942 127.564 39.1035 128.538 38.0818C129.509 37.0601 129.995 35.8729 129.995 34.5179C130 32.935 129.474 31.5224 128.093 30.5103Z" fill="#0067C6"/></g><defs><linearGradient id="paint0_linear_1916_7707" x1="-3.44136" y1="44.3918" x2="48.441" y2="45.4428" gradientUnits="userSpaceOnUse"><stop offset="0.585587" stop-color="#005EB6"/><stop offset="1" stop-color="#006EEF"/></linearGradient><linearGradient id="paint1_linear_1916_7707" x1="-1.85291" y1="32.879" x2="47.1027" y2="15.5982" gradientUnits="userSpaceOnUse"><stop stop-color="#53A3FE"/><stop offset="1" stop-color="#0374CA"/></linearGradient><linearGradient id="paint2_linear_1916_7707" x1="26.0759" y1="14.0085" x2="-3.40898" y2="13.6432" gradientUnits="userSpaceOnUse"><stop stop-color="#0D0E19"/><stop offset="0.6022" stop-color="#20222A"/><stop offset="0.8398" stop-color="#3E4151"/><stop offset="1" stop-color="#4E5266"/></linearGradient><linearGradient id="paint3_linear_1916_7707" x1="20.5923" y1="12.7416" x2="20.6912" y2="12.7416" gradientUnits="userSpaceOnUse"><stop stop-color="#0D0E19"/><stop offset="0.6022" stop-color="#20222A"/><stop offset="0.8398" stop-color="#3E4151"/><stop offset="1" stop-color="#4E5266"/></linearGradient><linearGradient id="paint4_linear_1916_7707" x1="36.8245" y1="22.1135" x2="23.7459" y2="23.6239" gradientUnits="userSpaceOnUse"><stop stop-color="#0D0E19"/><stop offset="0.6022" stop-color="#20222A"/><stop offset="0.8398" stop-color="#3E4151"/><stop offset="1" stop-color="#4E5266"/></linearGradient><linearGradient id="paint5_linear_1916_7707" x1="12.1804" y1="9.18387" x2="33.9017" y2="23.7405" gradientUnits="userSpaceOnUse"><stop stop-color="#0D0E19"/><stop offset="0.6022" stop-color="#20222A"/><stop offset="0.8398" stop-color="#3E4151"/><stop offset="1" stop-color="#4E5266"/></linearGradient><linearGradient id="paint6_linear_1916_7707" x1="14.8296" y1="44.3633" x2="27.9516" y2="34.4915" gradientUnits="userSpaceOnUse"><stop offset="0.6022" stop-color="#20222A"/><stop offset="0.8398" stop-color="#3E4151"/><stop offset="1" stop-color="#4E5266"/></linearGradient><linearGradient id="paint7_linear_1916_7707" x1="15.6602" y1="24.9494" x2="23.0877" y2="26.3872" gradientUnits="userSpaceOnUse"><stop offset="0.6022" stop-color="#20222A"/><stop offset="0.8398" stop-color="#3E4151"/><stop offset="1" stop-color="#4E5266"/></linearGradient><linearGradient id="paint8_linear_1916_7707" x1="18.7897" y1="22.7112" x2="17.5337" y2="43.7762" gradientUnits="userSpaceOnUse"><stop stop-color="#0D0E19"/><stop offset="0.6022" stop-color="#20222A"/><stop offset="0.8398" stop-color="#3E4151"/><stop offset="1" stop-color="#4E5266"/></linearGradient><clipPath id="clip0_1916_7707"><rect width="74.7214" height="26.0147" fill="white" transform="translate(55.2788 14.1753)"/></clipPath></defs></svg>