<svg width="120" height="120" viewBox="0 0 120 120" fill="none" xmlns="http://www.w3.org/2000/svg"><path d="M62.9298 44.9531C61.1518 45.6001 59.5768 47.2561 59.0308 49.0541C58.8078 49.8011 58.7478 52.3471 58.7478 61.7811V73.5791L58.3038 73.4171C58.0418 73.3361 57.1118 73.2561 56.2228 73.2561C54.8288 73.2561 54.4858 73.3371 53.6778 73.8021C52.5468 74.4691 51.3548 75.7621 50.8498 76.8731C50.5058 77.6401 50.4658 78.3481 50.4658 87.8221C50.4658 97.2351 50.4858 98.0431 50.8698 99.4981C52.1218 104.427 55.9808 108.285 61.1118 109.76C62.6468 110.225 62.8898 110.225 72.8898 110.225C82.8898 110.225 83.1318 110.225 84.6678 109.76C89.4148 108.386 92.9298 105.093 94.6678 100.386L95.2138 98.9111L95.2748 86.7101C95.3358 72.8921 95.3758 73.3361 93.7798 71.5591C93.2748 70.9931 92.3858 70.3071 91.7798 70.0041C90.8108 69.5391 90.4868 69.4781 89.2148 69.5601C88.4068 69.6211 87.5988 69.7221 87.4368 69.8021C87.1948 69.9031 87.0528 69.7411 86.8508 69.1761C86.4468 68.0451 84.5078 66.2261 83.3158 65.8231C82.1238 65.4191 80.5478 65.3991 79.5188 65.7621C78.7918 66.0241 78.7718 66.0241 78.6498 65.4801C78.3268 63.9651 76.1648 61.9241 74.4068 61.4401C73.5178 61.1981 71.7798 61.2381 71.0328 61.5411C70.6898 61.6821 70.6688 61.3181 70.6688 55.6421C70.6688 50.6731 70.6078 49.4201 70.3458 48.6521C69.6188 46.5311 67.5748 44.6721 64.8308 44.6721C64.2018 44.6901 63.3548 44.8111 62.9298 44.9531ZM67.1958 49.4181C67.1958 49.4181 67.1918 69.8421 67.2128 72.1041C67.2328 76.1651 67.2328 76.2051 67.7378 76.6891C68.3438 77.3151 69.4148 77.3561 70.0808 76.8101C70.5658 76.4261 70.5658 76.3861 70.6668 71.1331L70.7678 65.8401L71.3338 65.3551C72.1418 64.6681 73.8388 64.6681 74.6468 65.3551L75.2128 65.8401L75.3138 71.0321L75.4148 76.2241L75.9808 76.7091C76.7688 77.3761 77.6168 77.3351 78.3648 76.6081L78.9498 76.0221V73.3761C78.9498 71.9421 79.0308 70.5281 79.1518 70.2451C79.4348 69.4771 80.2228 69.0731 81.3738 69.0731C83.3128 69.0731 83.9598 70.0631 83.6968 72.7291C83.5358 74.4871 83.5358 75.2331 83.7168 78.2441C83.8378 80.3451 83.8588 80.4461 84.4438 80.9301C85.1308 81.5161 85.5958 81.5561 86.4038 81.1321C87.2518 80.7081 87.4348 79.9001 87.4348 76.6071C87.4348 74.0011 87.4758 73.6371 87.7988 73.4361C88.9098 72.7291 90.8288 72.9921 91.4348 73.9011C91.7578 74.4061 91.7778 75.3561 91.7778 86.0821C91.7778 96.5671 91.7368 97.8191 91.4138 98.9911C90.3638 102.829 87.4548 105.536 83.4748 106.385C81.3538 106.829 64.4258 106.829 62.2428 106.365C58.3848 105.577 55.6368 103.072 54.3848 99.2141C54.0618 98.2241 54.0208 97.0721 53.9608 88.3051C53.8998 79.2341 53.9198 78.4471 54.2438 77.8001C54.8898 76.5271 56.8898 76.2651 58.0818 77.2951L58.6478 77.7601L58.7488 83.0931C58.8498 88.5071 58.9508 89.1131 59.6778 89.3961C60.0818 89.5581 61.0508 89.5581 61.4758 89.3961C62.4048 89.0321 62.3848 89.3351 62.3848 68.8111V49.4781C62.3848 49.4781 62.7338 47.6891 64.7318 47.6891C66.7298 47.6891 67.1958 49.4181 67.1958 49.4181Z" fill="#1D1D1D"/><path d="M87.3102 27.8401L74.2402 39.7201" stroke="#1D1D1D" stroke-width="4" stroke-miterlimit="10" stroke-linecap="round"/><path d="M99.6602 26.89C104.736 26.89 108.85 22.7755 108.85 17.7C108.85 12.6245 104.736 8.51001 99.6602 8.51001C94.5847 8.51001 90.4702 12.6245 90.4702 17.7C90.4702 22.7755 94.5847 26.89 99.6602 26.89Z" stroke="#1D1D1D" stroke-width="4" stroke-miterlimit="10" stroke-linecap="round"/><path d="M18.7302 86.02C24.8219 86.02 29.7602 81.0817 29.7602 74.99C29.7602 68.8983 24.8219 63.96 18.7302 63.96C12.6385 63.96 7.7002 68.8983 7.7002 74.99C7.7002 81.0817 12.6385 86.02 18.7302 86.02Z" stroke="#1D1D1D" stroke-width="4" stroke-miterlimit="10" stroke-linecap="round"/><path d="M58.7699 61.74C53.6799 58.98 50.9099 53.02 52.4099 47.16C54.1899 40.25 61.2299 36.08 68.1499 37.86C75.0699 39.64 79.2299 46.68 77.4499 53.6C76.5199 57.21 74.1599 60.07 71.1199 61.73" stroke="#1D1D1D" stroke-width="3" stroke-miterlimit="10" stroke-linecap="round"/><path d="M99.6601 58.5499C102.869 58.5499 105.47 55.9487 105.47 52.7399C105.47 49.5312 102.869 46.9299 99.6601 46.9299C96.4513 46.9299 93.8501 49.5312 93.8501 52.7399C93.8501 55.9487 96.4513 58.5499 99.6601 58.5499Z" fill="#1D1D1D"/><path d="M38.8001 32.03C43.1687 32.03 46.7101 28.4885 46.7101 24.12C46.7101 19.7514 43.1687 16.21 38.8001 16.21C34.4316 16.21 30.8901 19.7514 30.8901 24.12C30.8901 28.4885 34.4316 32.03 38.8001 32.03Z" fill="#1D1D1D"/><path d="M80.75 52.74H89.97" stroke="#1D1D1D" stroke-width="4" stroke-miterlimit="10" stroke-linecap="round"/><path d="M52.0098 54.48L33.5298 65.27" stroke="#1D1D1D" stroke-width="4" stroke-miterlimit="10" stroke-linecap="round"/><path d="M55.4298 39.72L48.0698 32.28" stroke="#1D1D1D" stroke-width="4" stroke-miterlimit="10" stroke-linecap="round"/></svg>