<svg width="82" height="83" viewBox="0 0 82 83" fill="none" xmlns="http://www.w3.org/2000/svg"><path d="M10.9882 34.406V14.6385C10.9195 11.5819 13.4125 9.05201 16.5441 8.99656C16.6266 8.99656 16.7021 8.99656 16.7845 8.99656H39.9835C43.122 8.92725 45.718 11.3601 45.7798 14.4098C45.7798 14.4929 45.7798 14.5622 45.7798 14.6454H60.2775C61.8433 14.6108 63.1413 15.8237 63.1756 17.3485C63.1756 17.3901 63.1756 17.4317 63.1756 17.4664V25.9431" stroke="white" stroke-width="4" stroke-linecap="round" stroke-linejoin="round"/><path d="M31.2891 25.9362H66.0876C70.8949 25.9362 74.7889 29.7275 74.7889 34.4129V62.6502C74.7889 67.3357 70.8949 71.127 66.0876 71.127H41.1098" stroke="white" stroke-width="4" stroke-linecap="round" stroke-linejoin="round"/><path d="M34.1119 49.599C33.2809 49.599 32.6079 50.2782 32.6079 51.1169C32.6079 51.9556 33.2809 52.6348 34.1119 52.6348C34.9429 52.6348 35.616 51.9556 35.616 51.1169C35.616 50.2782 34.9429 49.599 34.1119 49.599Z" fill="white"/><path d="M22.8559 52.018H21.8669V51.0199C21.8669 50.4654 21.4274 50.0219 20.878 50.0219C20.3286 50.0219 19.889 50.4654 19.889 51.0199V52.018H18.9001C18.3507 52.018 17.9111 52.4616 17.9111 53.0161C17.9111 53.5706 18.3507 54.0142 18.9001 54.0142H19.889V55.0123C19.889 55.5667 20.3286 56.0103 20.878 56.0103C21.4274 56.0103 21.8669 55.5667 21.8669 55.0123V54.0142H22.8559C23.3984 54.0142 23.8448 53.5706 23.8448 53.0161C23.8517 52.4685 23.4053 52.018 22.8559 52.018Z" fill="white"/><path d="M31.6188 52.8151C30.7878 52.8151 30.1147 53.4943 30.1147 54.333C30.1147 55.1716 30.7878 55.8509 31.6188 55.8509C32.4498 55.8509 33.1228 55.1716 33.1228 54.333C33.1297 53.4943 32.4498 52.8151 31.6188 52.8151Z" fill="white"/><path d="M26.99 32.5347C15.6446 32.5347 6.44189 41.8224 6.44189 53.2725C6.44189 64.7227 15.6446 74.0104 26.99 74.0104C38.3354 74.0104 47.538 64.7227 47.538 53.2725C47.538 41.8224 38.3422 32.5347 26.99 32.5347ZM40.3201 56.8975C40.1416 61.5552 39.0771 63.7039 36.7695 63.5514C34.462 63.3989 32.2437 58.8659 32.2437 58.8659C32.2437 58.8659 24.3459 58.8659 21.7774 58.8659C19.9163 61.7285 18.5839 63.7039 16.6335 63.5514C14.0581 63.489 13.0829 58.6026 13.9689 53.4943C15.569 45.7939 17.9384 44.8651 19.4699 44.4562C20.7541 44.1096 22.5329 46.2167 22.5329 46.2167C22.5329 46.2167 30.3483 46.1196 31.8866 46.1612C32.1545 45.4473 33.3975 44.373 34.2834 44.4631C37.9233 45.1701 40.4987 52.2398 40.3201 56.8975Z" fill="white"/></svg>