<svg width="29" height="29" viewBox="0 0 29 29" fill="none" xmlns="http://www.w3.org/2000/svg">
<circle cx="14.5" cy="14.5" r="14.5" fill="#99A4AA"/>
<path d="M17.0155 8H11.8253C9.71599 8 8 9.71599 8 11.8253V17.0155C8 19.1247 9.71599 20.8408 11.8253 20.8408H17.0155C19.1247 20.8408 20.8408 19.1247 20.8408 17.0155V11.8253C20.8408 9.71599 19.1247 8 17.0155 8ZM19.549 17.0155C19.549 18.4147 18.4147 19.549 17.0155 19.549H11.8253C10.4261 19.549 9.29182 18.4147 9.29182 17.0155V11.8253C9.29182 10.4261 10.4261 9.29177 11.8253 9.29177H17.0155C18.4147 9.29177 19.549 10.4262 19.549 11.8253V17.0155Z" fill="white"/>
<path d="M14.4203 11.0996C12.589 11.0996 11.0991 12.5895 11.0991 14.4207C11.0991 16.2518 12.589 17.7417 14.4203 17.7417C16.2515 17.7417 17.7413 16.252 17.7413 14.4207C17.7413 12.5895 16.2515 11.0996 14.4203 11.0996ZM14.4203 16.45C13.2995 16.45 12.3909 15.5415 12.3909 14.4207C12.3909 13.2999 13.2995 12.3914 14.4203 12.3914C15.541 12.3914 16.4495 13.2999 16.4495 14.4207C16.4495 15.5415 15.541 16.45 14.4203 16.45Z" fill="white"/>
</svg>
