<svg width="141" height="142" viewBox="0 0 141 142" fill="none" xmlns="http://www.w3.org/2000/svg"><path d="M114.949 105.952H126.534V111.406C126.534 116.434 122.472 120.513 117.465 120.513H13.5332C8.52618 120.513 4.46387 116.434 4.46387 111.406V105.952H89.4418" stroke="white" stroke-width="4" stroke-miterlimit="10"/><path d="M136.158 91.8049C133.749 79.686 124.68 70.3774 112.776 67.8517C109.966 67.2351 104.876 67.0809 102.207 67.5197C95.594 68.6106 89.8784 71.5158 85.3792 76.1049C76.3098 85.2949 74.0661 99.1925 79.8171 110.718C84.0329 119.197 91.7561 125.09 101.156 126.964C103.789 127.486 109.529 127.486 112.162 126.964C124.432 124.498 133.714 115.177 136.17 102.857C136.43 101.505 136.536 99.8921 136.536 97.3308C136.536 94.7813 136.43 93.1567 136.158 91.8049ZM118.633 99.7379L111.04 104.446L103.447 109.153C101.711 110.232 99.5264 108.88 99.5264 106.722V97.307V87.8918C99.5264 85.7336 101.699 84.3818 103.447 85.4609L111.04 90.1685L118.633 94.8762C120.369 95.9671 120.369 98.6589 118.633 99.7379Z" fill="white"/><path d="M126.534 74.8124V24.4394C126.534 18.1902 121.491 13.115 115.256 13.115H16.8279C10.6046 13.115 5.55029 18.1784 5.55029 24.4394V82.5557C5.55029 88.8048 10.5928 93.8801 16.8279 93.8801H76.8769" stroke="white" stroke-width="4" stroke-miterlimit="10" stroke-linecap="round"/><path d="M39.2177 24.5936C32.2857 24.5936 26.6528 30.2973 26.6528 37.341C26.6528 44.3846 32.2739 50.0883 39.2177 50.0883C46.1614 50.0883 51.7825 44.3846 51.7825 37.341C51.7707 30.3091 46.1496 24.6054 39.2177 24.5936Z" fill="white"/><path d="M34.695 52.7564L39.8083 60.9859L45.1814 52.7564H57.4628C57.4628 52.7564 66.6739 58.1518 65.9063 66.3813C72.047 61.7567 74.3498 60.725 74.3498 60.725C74.3498 60.725 80.7503 59.9542 79.2151 66.3813C76.1448 68.9545 62.3282 78.4646 62.3282 78.4646C62.3282 78.4646 56.9314 78.2038 57.0732 73.5791C57.2149 68.9545 57.0732 65.6105 57.0732 65.6105H53.8847V92.3385H26.7711V65.8595H22.4254V92.3267H15.2573V60.725C15.2573 60.725 16.7925 52.7564 25.7556 52.7564C30.8571 52.7564 34.695 52.7564 34.695 52.7564Z" fill="white"/><path d="M102.786 45.8195L78.6953 62.1124" stroke="white" stroke-width="2" stroke-miterlimit="10" stroke-linecap="round"/></svg>