<svg width="29" height="29" viewBox="0 0 29 29" fill="none" xmlns="http://www.w3.org/2000/svg">
<circle cx="14.5" cy="14.5" r="14.5" fill="#99A4AA"/>
<path d="M9.02234 8.66016C8.05992 8.66016 7.43066 9.24699 7.43066 10.0183C7.43066 10.7726 8.04117 11.3762 8.98541 11.3762H9.00368C9.98493 11.3762 10.5956 10.7726 10.5956 10.0183C10.5773 9.24699 9.98493 8.66016 9.02234 8.66016Z" fill="white"/>
<path d="M7.59717 12.4492H10.4107V20.3093H7.59717V12.4492Z" fill="white"/>
<path d="M17.3165 12.2651C15.7987 12.2651 14.7809 13.5895 14.7809 13.5895V12.4496H11.9673V20.3098H14.7808V15.9203C14.7808 15.6854 14.7991 15.4507 14.8735 15.2827C15.0769 14.8135 15.5397 14.3274 16.317 14.3274C17.3351 14.3274 17.7423 15.0482 17.7423 16.1048V20.3098H20.5557V15.8029C20.5557 13.3886 19.1675 12.2651 17.3165 12.2651Z" fill="white"/>
</svg>
