<svg width="158" height="69" viewBox="0 0 158 69" fill="none" xmlns="http://www.w3.org/2000/svg"><g filter="url(#filter0_d_2018_1881)"><path d="M25.5212 50.8377C21.4791 50.8377 17.5937 50.2111 13.9902 49.0831L30.378 58.577C31.3493 59.141 32.5714 59.141 33.5741 58.577L56.354 45.4171C57.3253 44.8531 57.952 43.7878 57.952 42.6598V29.7192C54.0039 41.9078 40.9689 50.8377 25.5212 50.8377Z" fill="url(#paint0_linear_2018_1881)"/><path d="M56.3539 13.5829L33.574 0.422997C32.6027 -0.140999 31.3806 -0.140999 30.378 0.422997L7.59804 13.5829C6.59535 14.1469 6 15.1809 6 16.3402V17.7815V42.66C6 43.788 6.59535 44.8533 7.59804 45.4173L13.9902 49.1146C17.5936 50.2426 21.4791 50.8693 25.5212 50.8693C40.9689 50.8693 53.9726 41.9394 57.952 29.7508V16.3402C57.952 15.1809 57.3566 14.1469 56.3539 13.5829Z" fill="url(#paint1_linear_2018_1881)"/><path d="M30.1025 12.5646L21.2949 17.9736H31.3115V12.4064L30.8562 12.4064C30.6589 12.3986 30.3178 12.4433 30.1025 12.5646Z" fill="url(#paint2_linear_2018_1881)"/><path d="M29.4 13.859C29.373 13.9128 29.319 13.9667 29.292 14.0205C29.319 13.9398 29.346 13.8859 29.4 13.859Z" fill="url(#paint3_linear_2018_1881)"/><path d="M34.2989 25.4067H31.7686V31.2681H33.9344C33.9344 31.2681 37.2061 31.49 40.3286 29.6058C41.513 28.9059 42.509 27.8831 43.3703 26.591C44.2317 25.299 44.6624 23.7109 44.6624 21.8805C44.6624 20.8038 44.5278 19.8347 44.2856 18.9196C41.2707 25.945 35.1064 25.4336 34.2989 25.4067Z" fill="url(#paint4_linear_2018_1881)"/><path d="M41.89 14.9358C40.3018 13.4822 37.85 12.4055 35.1604 12.4055H35.0258C34.9989 12.4055 34.0467 12.4055 34.0467 12.4055L30.2418 12.4193L29.7266 12.4055C29.2104 12.3963 28.6328 12.5624 28.4313 12.7016L19.4106 18.1128L28.529 18.1128H34.3529C35.3219 18.2205 36.1703 18.2804 37.0152 19.2264C37.5126 19.7832 37.6369 20.8576 37.6369 21.9881C37.6369 23.1187 37.3408 23.9531 36.7486 24.5453C36.1564 25.1105 35.3488 25.4066 34.3529 25.4066C35.1604 25.4605 41.3247 25.945 44.3395 18.9465C43.8819 17.3583 43.0744 16.0125 41.89 14.9358Z" fill="url(#paint5_linear_2018_1881)"/><path d="M28.3511 46.5631L37.7434 41.9411C38.3032 41.6024 38.667 40.9815 38.667 40.3042V35.4878L28.3511 40.3042V46.5631Z" fill="url(#paint6_linear_2018_1881)"/><path d="M24.8505 25.4874L24.6621 31.2746H32.8991L33.599 25.4066L24.8505 25.4874Z" fill="url(#paint7_linear_2018_1881)"/><path d="M28.3695 31.3685C28.3695 31.3685 28.3695 29.9219 28.3695 29.1413C28.3695 28.3607 28.4574 25.7297 30.6378 25.4874C30.9339 25.4605 31.553 25.4336 31.553 25.4336H25.1828C23.9176 25.4336 22.8047 27.0679 22.8047 28.3061V42.6439L28.3695 46.5415C28.3695 46.5415 28.3695 31.9253 28.3695 31.3685Z" fill="url(#paint8_linear_2018_1881)"/></g><g clip-path="url(#clip0_2018_1881)"><g filter="url(#filter1_d_2018_1881)"><path d="M80.2167 15.4878C82.8761 15.4878 85.1439 16.4207 87.028 18.2838C88.9094 20.1495 89.8514 22.3952 89.8514 25.0287C89.8514 27.6595 88.9094 29.9078 87.028 31.7736C85.1439 33.6393 82.8761 34.5695 80.2167 34.5695H73.5324V43.699H68.5073V20.4639V15.4878H80.2167ZM80.2167 29.5934C81.4895 29.5934 82.5771 29.1479 83.4768 28.257C84.3765 27.3661 84.8263 26.2891 84.8263 25.0287C84.8263 23.7683 84.3765 22.6913 83.4768 21.8003C82.5771 20.9094 81.4895 20.4639 80.2167 20.4639H73.5324V34.035C73.67 32.8008 74.2178 31.7526 75.1731 30.8905C76.1283 30.0258 77.2424 29.596 78.5152 29.596H80.2167V29.5934Z" fill="white"/></g><g filter="url(#filter2_d_2018_1881)"><path d="M97.5732 43.6545V43.6964H92.5508V15.4878C93.9347 15.4878 95.1176 15.9752 96.102 16.9474C97.0837 17.9195 97.5759 19.0935 97.5759 20.4639V38.6809H101.646V39.6269C101.646 40.7511 101.251 41.7023 100.463 42.4858C99.6717 43.264 98.7084 43.6545 97.5732 43.6545Z" fill="white"/></g><g filter="url(#filter3_d_2018_1881)"><path d="M113.519 43.6963C111 43.6963 108.84 42.8054 107.041 41.0235C105.241 39.2416 104.342 37.1034 104.342 34.6088C104.342 32.1142 105.241 29.9759 107.041 28.194C108.84 26.4122 111 25.5212 113.519 25.5212C114.958 25.5212 116.342 25.8514 117.671 26.5091V25.5212C119.055 25.5212 120.237 26.0086 121.222 26.9808C122.204 27.953 122.696 29.1269 122.696 30.4974V43.6963H117.671V42.7084C116.342 43.3688 114.958 43.6963 113.519 43.6963ZM116.448 31.7106C115.63 30.9035 114.657 30.4974 113.521 30.4974C112.386 30.4974 111.41 30.9009 110.595 31.7106C109.777 32.5203 109.37 33.4846 109.37 34.6088C109.37 35.7329 109.777 36.6999 110.595 37.5069C111.41 38.3166 112.386 38.7202 113.521 38.7202C114.657 38.7202 115.633 38.3166 116.448 37.5069C117.263 36.6999 117.673 35.7329 117.673 34.6088C117.671 33.4846 117.263 32.5177 116.448 31.7106Z" fill="white"/></g><g filter="url(#filter4_d_2018_1881)"><path d="M137.231 25.5214C137.231 26.7556 136.837 27.8247 136.049 28.7287C135.26 29.6328 134.27 30.1961 133.08 30.4136V34.6089C133.08 35.7331 133.487 36.7 134.305 37.5071C135.12 38.3168 136.096 38.7203 137.231 38.7203V43.6964C134.712 43.6964 132.561 42.8134 130.775 41.0446C128.989 39.2758 128.097 37.1323 128.097 34.6089V30.4975H123.572C123.572 29.2371 124.008 28.1339 124.879 27.1879C125.75 26.242 126.824 25.7022 128.097 25.5633V24.8636C128.097 23.6583 128.581 22.6232 129.55 21.7585C130.518 20.8937 131.696 20.464 133.08 20.464V25.5214H137.231Z" fill="white"/></g><g filter="url(#filter5_d_2018_1881)"><path d="M150.843 33.3354C150.145 32.8427 148.629 31.8732 146.284 31.695C146.014 31.674 145.794 31.7553 145.009 31.5797C144.778 31.5273 144.44 31.4644 144.289 31.0582C144.244 30.9377 144.236 30.8276 144.241 30.7228C144.241 30.715 144.236 30.7123 144.236 30.7045C144.236 30.694 144.244 30.6835 144.244 30.673C144.254 30.5839 144.276 30.5027 144.31 30.4267C144.474 30.0205 144.961 29.672 145.625 29.6275C146.308 29.5829 146.853 29.8922 147.091 30.3533C147.205 30.6285 147.446 31.0556 147.755 31.0556H151.984C151.984 29.5777 151.365 28.3068 150.124 27.2455C148.883 26.1843 147.39 25.6419 145.644 25.613C143.897 25.6419 142.41 26.1843 141.185 27.2455C139.96 28.3068 139.346 29.5751 139.346 31.0556C139.346 32.5361 139.96 33.8044 141.185 34.8657C142.41 35.9269 143.897 36.4563 145.644 36.4563C146.347 36.4563 146.924 36.5689 147.377 36.7917C147.827 37.0144 148.052 37.3236 148.052 37.7114C148.052 38.0206 147.882 38.4582 147.475 38.7229C147.067 38.9876 146.557 39.1291 145.964 39.1579C145.202 39.1579 144.582 38.7727 144.159 38.2984C143.82 37.8241 143.341 37.5856 142.722 37.5856H138.875C138.846 39.0924 139.375 40.4183 140.46 41.5634C141.545 42.7085 142.833 43.4527 144.524 43.7593C144.837 43.817 145.461 43.9087 145.935 43.9087C146.406 43.9087 147.033 43.8405 147.287 43.7855C148.922 43.4789 150.245 42.7242 151.346 41.608C152.444 40.4917 152.995 39.1946 152.995 37.714C153 35.9846 152.405 34.4412 150.843 33.3354Z" fill="white"/></g></g><defs><filter id="filter0_d_2018_1881" x="-4" y="0" width="65.9521" height="77" filterUnits="userSpaceOnUse" color-interpolation-filters="sRGB"><feFlood flood-opacity="0" result="BackgroundImageFix"/><feColorMatrix in="SourceAlpha" type="matrix" values="0 0 0 0 0 0 0 0 0 0 0 0 0 0 0 0 0 0 127 0" result="hardAlpha"/><feOffset dy="4"/><feGaussianBlur stdDeviation="2"/><feComposite in2="hardAlpha" operator="out"/><feColorMatrix type="matrix" values="0 0 0 0 0 0 0 0 0 0 0 0 0 0 0 0 0 0 0.25 0"/><feBlend mode="normal" in2="BackgroundImageFix" result="effect1_dropShadow_2018_1881"/><feBlend mode="normal" in="SourceGraphic" in2="effect1_dropShadow_2018_1881" result="shape"/></filter><filter id="filter1_d_2018_1881" x="65.5073" y="14.4878" width="27.3442" height="34.2112" filterUnits="userSpaceOnUse" color-interpolation-filters="sRGB"><feFlood flood-opacity="0" result="BackgroundImageFix"/><feColorMatrix in="SourceAlpha" type="matrix" values="0 0 0 0 0 0 0 0 0 0 0 0 0 0 0 0 0 0 127 0" result="hardAlpha"/><feOffset dy="2"/><feGaussianBlur stdDeviation="1.5"/><feComposite in2="hardAlpha" operator="out"/><feColorMatrix type="matrix" values="0 0 0 0 0 0 0 0 0 0 0 0 0 0 0 0 0 0 0.18 0"/><feBlend mode="normal" in2="BackgroundImageFix" result="effect1_dropShadow_2018_1881"/><feBlend mode="normal" in="SourceGraphic" in2="effect1_dropShadow_2018_1881" result="shape"/></filter><filter id="filter2_d_2018_1881" x="89.5508" y="14.4878" width="15.0947" height="34.2086" filterUnits="userSpaceOnUse" color-interpolation-filters="sRGB"><feFlood flood-opacity="0" result="BackgroundImageFix"/><feColorMatrix in="SourceAlpha" type="matrix" values="0 0 0 0 0 0 0 0 0 0 0 0 0 0 0 0 0 0 127 0" result="hardAlpha"/><feOffset dy="2"/><feGaussianBlur stdDeviation="1.5"/><feComposite in2="hardAlpha" operator="out"/><feColorMatrix type="matrix" values="0 0 0 0 0 0 0 0 0 0 0 0 0 0 0 0 0 0 0.18 0"/><feBlend mode="normal" in2="BackgroundImageFix" result="effect1_dropShadow_2018_1881"/><feBlend mode="normal" in="SourceGraphic" in2="effect1_dropShadow_2018_1881" result="shape"/></filter><filter id="filter3_d_2018_1881" x="101.342" y="24.5212" width="24.354" height="24.175" filterUnits="userSpaceOnUse" color-interpolation-filters="sRGB"><feFlood flood-opacity="0" result="BackgroundImageFix"/><feColorMatrix in="SourceAlpha" type="matrix" values="0 0 0 0 0 0 0 0 0 0 0 0 0 0 0 0 0 0 127 0" result="hardAlpha"/><feOffset dy="2"/><feGaussianBlur stdDeviation="1.5"/><feComposite in2="hardAlpha" operator="out"/><feColorMatrix type="matrix" values="0 0 0 0 0 0 0 0 0 0 0 0 0 0 0 0 0 0 0.18 0"/><feBlend mode="normal" in2="BackgroundImageFix" result="effect1_dropShadow_2018_1881"/><feBlend mode="normal" in="SourceGraphic" in2="effect1_dropShadow_2018_1881" result="shape"/></filter><filter id="filter4_d_2018_1881" x="120.572" y="19.464" width="19.6597" height="29.2324" filterUnits="userSpaceOnUse" color-interpolation-filters="sRGB"><feFlood flood-opacity="0" result="BackgroundImageFix"/><feColorMatrix in="SourceAlpha" type="matrix" values="0 0 0 0 0 0 0 0 0 0 0 0 0 0 0 0 0 0 127 0" result="hardAlpha"/><feOffset dy="2"/><feGaussianBlur stdDeviation="1.5"/><feComposite in2="hardAlpha" operator="out"/><feColorMatrix type="matrix" values="0 0 0 0 0 0 0 0 0 0 0 0 0 0 0 0 0 0 0.18 0"/><feBlend mode="normal" in2="BackgroundImageFix" result="effect1_dropShadow_2018_1881"/><feBlend mode="normal" in="SourceGraphic" in2="effect1_dropShadow_2018_1881" result="shape"/></filter><filter id="filter5_d_2018_1881" x="135.874" y="24.613" width="20.1211" height="24.2957" filterUnits="userSpaceOnUse" color-interpolation-filters="sRGB"><feFlood flood-opacity="0" result="BackgroundImageFix"/><feColorMatrix in="SourceAlpha" type="matrix" values="0 0 0 0 0 0 0 0 0 0 0 0 0 0 0 0 0 0 127 0" result="hardAlpha"/><feOffset dy="2"/><feGaussianBlur stdDeviation="1.5"/><feComposite in2="hardAlpha" operator="out"/><feColorMatrix type="matrix" values="0 0 0 0 0 0 0 0 0 0 0 0 0 0 0 0 0 0 0.18 0"/><feBlend mode="normal" in2="BackgroundImageFix" result="effect1_dropShadow_2018_1881"/><feBlend mode="normal" in="SourceGraphic" in2="effect1_dropShadow_2018_1881" result="shape"/></filter><linearGradient id="paint0_linear_2018_1881" x1="2.10892" y1="48.5021" x2="60.7742" y2="49.7321" gradientUnits="userSpaceOnUse"><stop offset="0.585587" stop-color="#BBDEFF"/><stop offset="1" stop-color="#8EC2FF"/></linearGradient><linearGradient id="paint1_linear_2018_1881" x1="3.90479" y1="35.9233" x2="58.8296" y2="15.8581" gradientUnits="userSpaceOnUse"><stop stop-color="white"/><stop offset="1" stop-color="#A8D6F9"/></linearGradient><linearGradient id="paint2_linear_2018_1881" x1="35.4861" y1="15.3052" x2="2.14587" y2="14.8778" gradientUnits="userSpaceOnUse"><stop stop-color="#0D0E19"/><stop offset="0.6022" stop-color="#20222A"/><stop offset="0.8398" stop-color="#3E4151"/><stop offset="1" stop-color="#4E5266"/></linearGradient><linearGradient id="paint3_linear_2018_1881" x1="29.2848" y1="13.9213" x2="29.3966" y2="13.9213" gradientUnits="userSpaceOnUse"><stop stop-color="#0D0E19"/><stop offset="0.6022" stop-color="#20222A"/><stop offset="0.8398" stop-color="#3E4151"/><stop offset="1" stop-color="#4E5266"/></linearGradient><linearGradient id="paint4_linear_2018_1881" x1="47.64" y1="24.1608" x2="32.8649" y2="25.9268" gradientUnits="userSpaceOnUse"><stop stop-color="#0D0E19"/><stop offset="0.6022" stop-color="#20222A"/><stop offset="0.8398" stop-color="#3E4151"/><stop offset="1" stop-color="#4E5266"/></linearGradient><linearGradient id="paint5_linear_2018_1881" x1="19.7731" y1="10.0341" x2="43.8053" y2="26.7021" gradientUnits="userSpaceOnUse"><stop stop-color="#0D0E19"/><stop offset="0.6022" stop-color="#20222A"/><stop offset="0.8398" stop-color="#3E4151"/><stop offset="1" stop-color="#4E5266"/></linearGradient><linearGradient id="paint6_linear_2018_1881" x1="22.7685" y1="48.4708" x2="37.2347" y2="37.2076" gradientUnits="userSpaceOnUse"><stop offset="0.6022" stop-color="#20222A"/><stop offset="0.8398" stop-color="#3E4151"/><stop offset="1" stop-color="#4E5266"/></linearGradient><linearGradient id="paint7_linear_2018_1881" x1="23.7081" y1="27.259" x2="32.0854" y2="28.9374" gradientUnits="userSpaceOnUse"><stop offset="0.6022" stop-color="#20222A"/><stop offset="0.8398" stop-color="#3E4151"/><stop offset="1" stop-color="#4E5266"/></linearGradient><linearGradient id="paint8_linear_2018_1881" x1="27.2462" y1="24.814" x2="25.9199" y2="47.8348" gradientUnits="userSpaceOnUse"><stop stop-color="#0D0E19"/><stop offset="0.6022" stop-color="#20222A"/><stop offset="0.8398" stop-color="#3E4151"/><stop offset="1" stop-color="#4E5266"/></linearGradient><clipPath id="clip0_2018_1881"><rect width="95.6316" height="50.2881" fill="white" transform="translate(62.3687 14.0339)"/></clipPath></defs></svg>