<svg width="494" height="474" viewBox="0 0 494 474" fill="none" xmlns="http://www.w3.org/2000/svg">
<path d="M86.2002 371.4V335.9L55.5002 318.1L24.7002 335.9V371.4L55.5002 389.1L86.2002 371.4Z" fill="#FFC75F"/>
<path d="M473.1 372.6V326.4L433.1 303.2L393 326.4V372.6L433.1 395.8L473.1 372.6Z" fill="#41853F"/>
<path d="M234.7 162.2L167.1 286.6L305 283.8L234.7 162.2Z" stroke="white" stroke-width="6" stroke-miterlimit="10" stroke-linecap="round" stroke-linejoin="round"/>
<path d="M351 182.3L234.7 162.2L244.3 119.8L351 182.3Z" stroke="white" stroke-width="2" stroke-miterlimit="10" stroke-linecap="round" stroke-linejoin="round"/>
<path d="M354.2 304.6L305 283.8L351 182.3L354.2 304.6Z" stroke="white" stroke-width="2" stroke-miterlimit="10" stroke-linecap="round" stroke-linejoin="round"/>
<path d="M244.3 368L305 283.8L354.2 304.6L244.3 368Z" stroke="white" stroke-width="2" stroke-miterlimit="10" stroke-linecap="round" stroke-linejoin="round"/>
<path d="M136.2 304.6L167.1 286.6L244.3 368L136.2 304.6Z" stroke="white" stroke-miterlimit="10" stroke-linecap="round" stroke-linejoin="round"/>
<path d="M133.9 181.2L136.2 304.6L167.1 286.6L133.9 181.2Z" stroke="white" stroke-width="2" stroke-miterlimit="10" stroke-linecap="round" stroke-linejoin="round"/>
<path d="M234.7 162.2L133.9 181.2L244.3 119.8L234.7 162.2Z" stroke="white" stroke-width="2" stroke-miterlimit="10" stroke-linecap="round" stroke-linejoin="round"/>
<path d="M430.9 319.3L405.7 365.7L457.1 364.7L430.9 319.3Z" stroke="white" stroke-width="2" stroke-miterlimit="10" stroke-linecap="round" stroke-linejoin="round"/>
<path d="M474.2 326.8L430.9 319.3L434.5 303.5L474.2 326.8Z" stroke="white" stroke-width="2" stroke-miterlimit="10" stroke-linecap="round" stroke-linejoin="round"/>
<path d="M475.4 372.4L457.1 364.7L474.2 326.8L475.4 372.4Z" stroke="white" stroke-width="2" stroke-miterlimit="10" stroke-linecap="round" stroke-linejoin="round"/>
<path d="M434.5 396L457.1 364.7L475.4 372.4L434.5 396Z" stroke="white" stroke-width="2" stroke-miterlimit="10" stroke-linecap="round" stroke-linejoin="round"/>
<path d="M394.2 372.4L405.7 365.7L434.5 396L394.2 372.4Z" stroke="white" stroke-width="2" stroke-miterlimit="10" stroke-linecap="round" stroke-linejoin="round"/>
<path d="M393.3 326.4L394.2 372.4L405.7 365.7L393.3 326.4Z" stroke="white" stroke-width="2" stroke-miterlimit="10" stroke-linecap="round" stroke-linejoin="round"/>
<path d="M430.9 319.3L393.3 326.4L434.5 303.5L430.9 319.3Z" stroke="white" stroke-width="2" stroke-miterlimit="10" stroke-linecap="round" stroke-linejoin="round"/>
<path d="M354.2 296.4V190.7C354.2 184.1 350.7 178.1 345 174.8L253.5 122C247.8 118.7 240.8 118.7 235.2 122L143.7 174.8C138 178.1 134.5 184.1 134.5 190.7V296.4C134.5 303 138 309 143.7 312.3L235.2 365.1C240.9 368.4 247.9 368.4 253.5 365.1L345 312.3C350.7 309 354.2 302.9 354.2 296.4Z" stroke="white" stroke-width="10" stroke-miterlimit="10"/>
<path d="M55.6001 317.3C54.9001 317.3 54.2001 317.5 53.6001 317.8L25.6001 334C24.4001 334.7 23.6001 336 23.6001 337.5V369.9C23.6001 371.3 24.4001 372.7 25.6001 373.4L53.6001 389.6C54.8001 390.3 56.4001 390.3 57.6001 389.6L85.6001 373.4C86.5001 372.9 87.2001 372 87.5001 371" stroke="white" stroke-width="6" stroke-miterlimit="10"/>
<path d="M391.7 371V328C391.7 326.6 392.5 325.2 393.7 324.5L431 303C431.6 302.6 432.3 302.5 433 302.5V147.7C433 139.5 428.6 132 421.6 127.9L255.7 32.2C248.6 28.1 239.9 28.1 232.9 32.2L67.0001 128C59.9001 132.1 55.6001 139.6 55.6001 147.8V317.3C56.3001 317.3 57.0001 317.5 57.6001 317.8L85.6001 334C86.8001 334.7 87.6001 336 87.6001 337.5V369.9C87.6001 370.3 87.5001 370.6 87.4001 371L232.8 455C239.9 459.1 248.6 459.1 255.6 455L394.2 375L393.6 374.7C392.5 373.8 391.7 372.5 391.7 371Z" stroke="white" stroke-width="6" stroke-miterlimit="10"/>
<path d="M394.3 374.9L431 396.1C432.2 396.8 433.8 396.8 435 396.1L472.3 374.6C473.5 373.9 474.3 372.6 474.3 371.1V328C474.3 326.6 473.5 325.2 472.3 324.5L435.1 303" stroke="white" stroke-width="6" stroke-miterlimit="10"/>
<path d="M243.6 168.4V158L234.7 152.8L225.7 158V168.4L234.7 173.5L243.6 168.4Z" fill="white"/>
<path d="M176.1 292.7V282.4L167.1 277.2L158.2 282.4V292.7L167.1 297.9L176.1 292.7Z" fill="white"/>
<path d="M314 286.4V276L305 270.9L296 276V286.4L305 291.6L314 286.4Z" fill="white"/>
<path d="M430.6 137.4L351 182.3" stroke="white" stroke-width="6" stroke-miterlimit="10"/>
<path d="M244.3 368V457.9" stroke="white" stroke-width="6" stroke-miterlimit="10"/>
<path d="M133.9 181.2L58.1001 137.4" stroke="white" stroke-width="6" stroke-miterlimit="10"/>
<path d="M378.5 106V56.6L335.7 31.9L292.8 56.6V106L335.7 130.8L378.5 106Z" fill="#3EC7F4" stroke="white" stroke-width="6" stroke-miterlimit="10" stroke-linecap="round" stroke-linejoin="round"/>
<path d="M329.4 82.6V74.7C329.4 72.9 331.2 71.7 332.7 72.7L339.1 76.7L345.5 80.7C347 81.6 347 83.9 345.5 84.8L339.1 88.8L332.7 92.8C331.2 93.7 329.4 92.6 329.4 90.8V82.6Z" fill="white"/>
<path d="M56 369.6C64.8366 369.6 72 362.437 72 353.6C72 344.763 64.8366 337.6 56 337.6C47.1634 337.6 40 344.763 40 353.6C40 362.437 47.1634 369.6 56 369.6Z" fill="white"/>
<path d="M48.8999 351.4L55.6999 358.5H55.7999L74.4999 339.7" stroke="#F5C360" stroke-width="5" stroke-miterlimit="10" stroke-linecap="round"/>
</svg>
