<svg width="100" height="101" viewBox="0 0 100 101" fill="none" xmlns="http://www.w3.org/2000/svg"><path d="M76.6498 60.5916C75.8039 60.5916 75.1255 61.2832 75.1255 62.1266C75.1255 62.9784 75.8123 63.6616 76.6498 63.6616C77.4957 63.6616 78.1741 62.97 78.1741 62.1266C78.1741 61.2832 77.4873 60.5916 76.6498 60.5916Z" fill="white"/><path d="M65.2346 63.0459H64.2296V62.0338C64.2296 61.4687 63.7773 61.0217 63.2245 61.0217C62.6634 61.0217 62.2195 61.4772 62.2195 62.0338V63.0459H61.2145C60.6534 63.0459 60.2095 63.5014 60.2095 64.0581C60.2095 64.6231 60.6617 65.0702 61.2145 65.0702H62.2195V66.0823C62.2195 66.6474 62.6718 67.0944 63.2245 67.0944C63.7857 67.0944 64.2296 66.6389 64.2296 66.0823V65.0702H65.2346C65.7874 65.0702 66.2396 64.6147 66.2396 64.0581C66.2396 63.493 65.7874 63.0459 65.2346 63.0459Z" fill="white"/><path d="M74.1205 63.8472C73.2746 63.8472 72.5962 64.5388 72.5962 65.3822C72.5962 66.2341 73.283 66.9172 74.1205 66.9172C74.9664 66.9172 75.6448 66.2256 75.6448 65.3822C75.6448 64.5388 74.9664 63.8472 74.1205 63.8472Z" fill="white"/><path d="M69.422 43.3182C57.9145 43.3182 48.5845 52.714 48.5845 64.3026C48.5845 75.8913 57.9145 85.287 69.422 85.287C80.9295 85.287 90.2595 75.8913 90.2595 64.3026C90.2595 52.714 80.9295 43.3182 69.422 43.3182ZM82.9396 67.9799C82.7637 72.6947 81.6833 74.8623 79.3382 74.7105C77.0016 74.5587 74.7486 69.9704 74.7486 69.9704C74.7486 69.9704 66.7419 69.9704 64.1289 69.9704C62.2361 72.8718 60.8877 74.8623 58.9111 74.7105C56.298 74.643 55.3098 69.7005 56.2143 64.5388C57.8307 56.7455 60.2428 55.8093 61.7922 55.3876C63.0987 55.0334 64.8994 57.1673 64.8994 57.1673C64.8994 57.1673 72.8307 57.0745 74.3885 57.1082C74.6565 56.3829 75.9212 55.2949 76.8173 55.3876C80.5108 56.113 83.1238 63.2652 82.9396 67.9799Z" fill="white"/><path d="M40.1006 25.1931C39.2547 25.1846 38.5679 25.8678 38.5679 26.7197C38.5596 27.5715 39.238 28.2631 40.0839 28.2631C40.9298 28.2716 41.6165 27.5884 41.6165 26.7365C41.6165 25.8847 40.9381 25.1931 40.1006 25.1931Z" fill="white"/><path d="M28.6688 27.5631L27.6637 27.5547L27.6721 26.5426C27.6721 25.9775 27.2282 25.5305 26.6755 25.522C26.1143 25.522 25.6704 25.969 25.6621 26.5257L25.6537 27.5378L24.6487 27.5294C24.0875 27.5294 23.6436 27.9764 23.6353 28.5331C23.6353 29.0982 24.0791 29.5452 24.6319 29.5536L25.6369 29.562L25.6286 30.5741C25.6286 31.1392 26.0724 31.5863 26.6252 31.5947C27.1863 31.5947 27.6302 31.1477 27.6386 30.591L27.647 29.5789L28.652 29.5873C29.2048 29.5873 29.657 29.1403 29.6654 28.5837C29.6654 28.0186 29.2215 27.5631 28.6688 27.5631Z" fill="white"/><path d="M37.5464 28.4234C36.7089 28.4234 36.0137 29.1066 36.0137 29.95C36.0054 30.8019 36.6838 31.4935 37.5297 31.4935C38.3756 31.5019 39.0623 30.8187 39.0623 29.9669C39.0707 29.1234 38.3923 28.4318 37.5464 28.4234Z" fill="white"/><path d="M32.9901 7.86917C21.4826 7.79327 12.0856 17.1215 12.0102 28.7102C11.9348 40.2988 21.1978 49.762 32.7054 49.8379C44.2213 49.9223 53.6099 40.5856 53.6853 28.9969C53.769 17.4083 44.4977 7.94508 32.9901 7.86917ZM46.3402 32.6152C46.1308 37.3215 45.0337 39.4891 42.697 39.3204C40.3603 39.1518 38.1409 34.5551 38.1409 34.5551C38.1409 34.5551 30.1342 34.5045 27.5211 34.4792C25.6116 37.3637 24.2464 39.3542 22.2699 39.1855C19.6652 39.1012 18.702 34.1503 19.64 28.9885C21.3151 21.2037 23.7271 20.2844 25.2849 19.8795C26.5915 19.5337 28.3754 21.676 28.3754 21.676C28.3754 21.676 36.3067 21.6338 37.8645 21.6845C38.1409 20.9591 39.4055 19.8795 40.3017 19.9807C43.9951 20.7314 46.558 27.9089 46.3402 32.6152Z" fill="white"/><path d="M14.0786 60.9205L22.8726 52.073L31.6582 60.9205" stroke="white" stroke-width="4" stroke-linecap="round" stroke-linejoin="round"/><path d="M22.8727 52.9249V72.2561C22.789 75.7395 25.9799 78.624 30.0084 78.6999C30.1089 78.6999 30.2178 78.6999 30.3183 78.6999H48.9196" stroke="white" stroke-width="4" stroke-linecap="round" stroke-linejoin="round"/><path d="M88.8863 31.8898L80.0337 40.8048L71.1895 31.8898" stroke="white" stroke-width="4" stroke-linecap="round" stroke-linejoin="round"/><path d="M80.0337 40.8049V22.064C80.1175 18.6818 76.9265 15.8901 72.898 15.8142C72.7975 15.8142 72.6887 15.8142 72.5882 15.8142H53.9868" stroke="white" stroke-width="4" stroke-linecap="round" stroke-linejoin="round"/></svg>