<svg width="94" height="95" viewBox="0 0 94 95" fill="none" xmlns="http://www.w3.org/2000/svg"><path d="M47.685 77.2138C62.9507 77.2138 75.326 64.7434 75.326 49.3603C75.326 33.9773 62.9507 21.5069 47.685 21.5069C32.4193 21.5069 20.0439 33.9773 20.0439 49.3603C20.0439 64.7434 32.4193 77.2138 47.685 77.2138Z" stroke="white" stroke-width="4" stroke-miterlimit="10"/><path d="M47.6852 28.9641C36.3013 28.9641 27.0352 38.1111 27.0352 49.3604C27.0352 60.6096 36.3013 69.7566 47.6852 69.7566C59.0692 69.7566 68.3353 60.6096 68.3353 49.3604C68.3353 38.1111 59.077 28.9641 47.6852 28.9641ZM50.4486 47.9165C51.2516 47.9165 51.905 48.5591 51.905 49.3604C51.905 50.1537 51.2516 50.8042 50.4486 50.8042H47.5278V55.1278C47.5278 55.9211 46.8743 56.5716 46.0713 56.5716C45.2683 56.5716 44.6149 55.929 44.6149 55.1278V43.5929C44.6149 42.7996 45.2683 42.1491 46.0713 42.1491H51.905C52.708 42.1491 53.3614 42.7917 53.3614 43.5929C53.3614 44.3862 52.708 45.0368 51.905 45.0368H47.5278V47.9165H50.4486ZM35.8604 55.1199C35.8604 55.9132 35.207 56.5637 34.404 56.5637C33.601 56.5637 32.9475 55.9211 32.9475 55.1199V43.5929C32.9475 42.9265 33.412 42.3474 34.0733 42.1887C34.7425 42.038 35.4117 42.3474 35.7109 42.9503L38.7812 49.0192V43.5929C38.7812 42.7996 39.4347 42.1491 40.2377 42.1491C41.0407 42.1491 41.6941 42.7917 41.6941 43.5929V55.1199C41.6941 55.7862 41.2296 56.3654 40.5683 56.524C40.4581 56.5478 40.34 56.5637 40.2298 56.5637C39.6866 56.5637 39.1749 56.2622 38.9229 55.7704L35.8526 49.7015V55.1199H35.8604ZM62.1238 45.0368H60.6673V55.1199C60.6673 55.9132 60.0139 56.5637 59.2109 56.5637C58.4078 56.5637 57.7544 55.9211 57.7544 55.1199V45.0368H56.298C55.495 45.0368 54.8415 44.3942 54.8415 43.5929C54.8415 42.7996 55.495 42.1491 56.298 42.1491H62.1316C62.9346 42.1491 63.5881 42.7917 63.5881 43.5929C63.5802 44.3862 62.9268 45.0368 62.1238 45.0368Z" fill="white"/><path d="M6.4714 18.6668C8.11679 18.6668 9.51026 17.6196 10.0299 16.1678H33.1598L37.4741 21.8401C38.3007 21.5227 39.1352 21.2371 39.9933 20.9991L34.7974 14.1687C34.5612 13.8513 34.1833 13.6689 33.7818 13.6689H10.0299C9.50239 12.2171 8.11679 11.1699 6.4714 11.1699C4.37726 11.1699 2.67676 12.8518 2.67676 14.9144C2.67676 16.977 4.37726 18.6668 6.4714 18.6668Z" fill="white"/><path d="M11.5261 67.3766C9.43195 67.3766 7.73145 69.0584 7.73145 71.1211C7.73145 73.1837 9.43195 74.8655 11.5261 74.8655C13.1715 74.8655 14.5649 73.8183 15.0845 72.3666H26.1929C26.5629 72.3666 26.9093 72.2079 27.1534 71.9302L28.7594 70.0818C28.1375 69.5185 27.5392 68.9315 26.9644 68.3127L25.6103 69.8676H15.0924C14.5649 68.4238 13.1715 67.3766 11.5261 67.3766Z" fill="white"/><path d="M83.0886 29.9081C85.1827 29.9081 86.8832 28.2263 86.8832 26.1637C86.8832 24.101 85.1827 22.4192 83.0886 22.4192C81.4432 22.4192 80.0497 23.4664 79.5301 24.9181H69.2011C68.8311 24.9181 68.4847 25.0768 68.2407 25.3545L66.6504 27.187C67.2802 27.7503 67.8785 28.3374 68.4532 28.9482L69.7837 27.4092H79.5301C80.0497 28.8609 81.4432 29.9081 83.0886 29.9081Z" fill="white"/><path d="M28.7672 27.195L27.1612 25.3465C26.9171 25.0689 26.5707 24.9102 26.2007 24.9102H15.0924C14.5649 23.4584 13.1793 22.4113 11.5339 22.4113C9.43976 22.4113 7.73926 24.0931 7.73926 26.1557C7.73926 28.2184 9.43976 29.9002 11.5339 29.9002C13.1793 29.9002 14.5728 28.853 15.0924 27.4012H25.626L26.9801 28.9561C27.547 28.3532 28.1453 27.7582 28.7672 27.195Z" fill="white"/><path d="M66.6504 70.0977L68.2407 71.9302C68.4847 72.2079 68.8311 72.3666 69.2011 72.3666H79.5223C80.0497 73.8183 81.4353 74.8655 83.0807 74.8655C85.1748 74.8655 86.8754 73.1837 86.8754 71.1211C86.8754 69.0584 85.1748 67.3766 83.0807 67.3766C81.4353 67.3766 80.0419 68.4238 79.5223 69.8755H69.7837L68.4532 68.3365C67.8785 68.9474 67.2723 69.5344 66.6504 70.0977Z" fill="white"/><path d="M57.9353 21.8321L62.2417 16.1678H84.5844C85.1119 17.6196 86.4975 18.6668 88.1429 18.6668C90.237 18.6668 91.9375 16.985 91.9375 14.9223C91.9375 12.8597 90.237 11.1779 88.1429 11.1779C86.4975 11.1779 85.104 12.225 84.5844 13.6768H61.6119C61.2183 13.6768 60.8404 13.8593 60.5963 14.1766L55.4082 20.9992C56.2742 21.2292 57.1166 21.5148 57.9353 21.8321Z" fill="white"/><path d="M88.1429 78.6179C86.4975 78.6179 85.104 79.6651 84.5844 81.1169H62.2417L57.9353 75.4526C57.1087 75.7699 56.2663 76.0555 55.4082 76.2935L60.5963 83.116C60.8404 83.4334 61.2104 83.6158 61.6119 83.6158H84.5844C85.1119 85.0676 86.4975 86.1148 88.1429 86.1148C90.237 86.1148 91.9375 84.433 91.9375 82.3703C91.9375 80.2918 90.237 78.6179 88.1429 78.6179Z" fill="white"/><path d="M88.1427 34.9061C86.4973 34.9061 85.1039 35.9532 84.5843 37.405H73.9482C74.2946 38.2221 74.5938 39.0551 74.8693 39.904H84.5843C85.1039 41.3558 86.4973 42.4029 88.1427 42.4029C90.2369 42.4029 91.9374 40.7211 91.9374 38.6585C91.9374 36.58 90.2369 34.9061 88.1427 34.9061Z" fill="white"/><path d="M6.4714 62.3787C8.11679 62.3787 9.51026 61.3315 10.0299 59.8797H21.4846C21.1382 59.0626 20.8391 58.2296 20.5635 57.3808H10.0299C9.50238 55.929 8.11679 54.8818 6.4714 54.8818C4.37726 54.8818 2.67676 56.5637 2.67676 58.6263C2.67676 60.6969 4.37726 62.3787 6.4714 62.3787Z" fill="white"/><path d="M37.4741 75.4367L33.1598 81.1089H10.0299C9.50239 79.6572 8.11679 78.61 6.4714 78.61C4.37726 78.61 2.67676 80.2918 2.67676 82.3544C2.67676 84.4171 4.37726 86.0989 6.4714 86.0989C8.11679 86.0989 9.51026 85.0517 10.0299 83.6H33.7897C34.1833 83.6 34.5612 83.4175 34.8052 83.1002L40.0012 76.2697C39.1352 76.0396 38.2928 75.754 37.4741 75.4367Z" fill="white"/></svg>