<svg width="83" height="84" viewBox="0 0 83 84" fill="none" xmlns="http://www.w3.org/2000/svg"><path d="M65.6977 55.9906C65.6977 58.102 63.223 59.8135 60.1713 59.8135H8.41798C5.36631 59.8135 2.8916 58.102 2.8916 55.9906V14.2677C2.8916 12.1563 5.36631 10.4447 8.41798 10.4447H60.1644C63.2161 10.4447 65.6908 12.1563 65.6908 14.2677" stroke="white" stroke-width="4" stroke-miterlimit="10"/><path d="M50.7109 31.7482C49.2928 24.2987 43.961 18.5888 36.9679 17.0315C35.3204 16.6527 32.3244 16.5615 30.7533 16.8281C26.8675 17.5015 23.503 19.2832 20.8545 22.1031C15.5228 27.7498 14.2089 36.2866 17.5804 43.3714C20.062 48.5762 24.6013 52.2028 30.1208 53.3532C31.6709 53.6759 35.0424 53.6759 36.5925 53.3532C43.8012 51.838 49.265 46.1071 50.7039 38.5383C50.8568 37.7036 50.9194 36.7145 50.9194 35.1432C50.9194 33.572 50.8638 32.5759 50.7109 31.7482ZM26.1584 38.5383C26.6867 39.0855 26.6867 39.9833 26.1584 40.5305C25.6301 41.0776 24.7682 41.0776 24.2329 40.5305L19.9786 36.1253C19.4503 35.5782 19.4503 34.6803 19.9786 34.1331L24.2329 29.728C24.7612 29.1808 25.6232 29.1808 26.1584 29.728C26.6867 30.2751 26.6867 31.173 26.1584 31.7201L22.8704 35.1292L26.1584 38.5383ZM37.6005 29.8542L30.802 41.8282C30.4197 42.5016 29.5855 42.726 28.939 42.3262C28.2925 41.9334 28.077 41.0706 28.4594 40.3972L35.2579 28.4232C35.6402 27.7498 36.4744 27.5254 37.1208 27.9252C37.7673 28.325 37.9828 29.1878 37.6005 29.8542ZM45.9074 36.1253L41.6532 40.5305C41.389 40.804 41.0414 40.9443 40.6939 40.9443C39.4913 40.9443 38.8726 39.4292 39.7346 38.5383L43.0226 35.1292L39.7346 31.7201C39.2063 31.173 39.2063 30.2751 39.7346 29.728C40.2629 29.1808 41.1249 29.1808 41.6601 29.728L45.9144 34.1331C46.4357 34.6873 46.4357 35.5782 45.9074 36.1253Z" fill="white"/><path d="M77.2169 27.7007C77.05 26.6695 76.2923 25.8628 75.3261 25.6875C71.5584 25.0211 68.604 21.8785 67.9784 17.8802C67.7629 16.5404 66.5742 15.6426 65.316 15.867C64.3428 16.0424 63.5851 16.8491 63.4252 17.8802C62.7926 21.8856 59.8452 25.0211 56.0776 25.6875C54.8194 25.912 53.9713 27.1816 54.1868 28.5214C54.3536 29.5525 55.1113 30.3592 56.0776 30.5346C59.8452 31.201 62.7996 34.3435 63.4252 38.3418C63.6407 39.6816 64.8294 40.5795 66.0876 40.355C67.0608 40.1797 67.8185 39.373 67.9784 38.3418C68.611 34.3365 71.5584 31.201 75.3261 30.5346C76.5843 30.3101 77.4323 29.0405 77.2169 27.7007ZM65.6983 31.6219C64.7947 30.261 63.6824 29.0685 62.3964 28.1145C63.6824 27.1535 64.7947 25.9681 65.6983 24.6072C66.602 25.9681 67.7143 27.1606 69.0003 28.1145C67.7143 29.0685 66.5951 30.261 65.6983 31.6219Z" fill="white"/><path d="M70.5429 74.3759H8.11213C5.16473 74.3759 2.77344 71.9629 2.77344 68.9887V65.9584H75.8816V68.9887C75.8816 71.9629 73.4903 74.3759 70.5429 74.3759Z" stroke="white" stroke-width="4" stroke-miterlimit="10"/><path d="M74.4566 11.3566C73.9283 13.1875 72.6492 14.5273 71.1755 15.0323C70.3483 15.3129 70.3553 16.344 71.1825 16.6246C72.6562 17.1297 73.9353 18.4765 74.4566 20.3073C74.7069 21.1701 76.0833 21.1701 76.3335 20.3073C76.8549 18.4765 78.1339 17.1297 79.6076 16.6316C80.4348 16.3511 80.4418 15.3199 79.6146 15.0393C78.1409 14.5343 76.8549 13.1875 76.3335 11.3566C76.2292 10.9849 75.8678 10.7113 75.3951 10.7113C74.9224 10.7113 74.5609 10.9989 74.4566 11.3566Z" fill="white"/><path d="M71.481 39.6817C70.9527 41.5125 69.6737 42.8523 68.2 43.3574C67.3727 43.638 67.3797 44.6691 68.2069 44.9497C69.6806 45.4548 70.9597 46.8016 71.481 48.6324C71.7313 49.4952 73.1077 49.4952 73.3579 48.6324C73.8793 46.8016 75.1583 45.4547 76.632 44.9567C77.4592 44.6761 77.4662 43.645 76.639 43.3644C75.1653 42.8593 73.8793 41.5125 73.3579 39.6817C73.2536 39.3099 72.8922 39.0364 72.4195 39.0364C71.9468 39.0364 71.5853 39.324 71.481 39.6817Z" fill="white"/></svg>