<svg width="99" height="99" viewBox="0 0 99 99" fill="none" xmlns="http://www.w3.org/2000/svg"><path d="M85.46 18.2127C85.3688 17.6753 84.946 17.2454 84.4153 17.1545C82.3341 16.8073 80.7007 15.1538 80.3608 13.0539C80.2447 12.3512 79.5814 11.88 78.8932 11.9957C78.3543 12.0867 77.9397 12.5083 77.8485 13.0539C77.5002 15.1538 75.8668 16.799 73.7939 17.1545C73.0975 17.2702 72.6331 17.9399 72.7492 18.6426C72.8404 19.18 73.2633 19.6099 73.7939 19.7008C75.8751 20.048 77.5085 21.7015 77.8485 23.8013C77.9646 24.5041 78.6279 24.9753 79.3161 24.8595C79.855 24.7686 80.2696 24.347 80.3608 23.8013C80.709 21.7015 82.3424 20.0563 84.4153 19.7008C85.1035 19.5851 85.5761 18.9154 85.46 18.2127ZM79.0922 20.2712C78.5947 19.552 77.9811 18.9319 77.2681 18.4276C77.9728 17.9233 78.5947 17.3033 79.0922 16.5841C79.5897 17.3033 80.2032 17.9233 80.9163 18.4276C80.2115 18.9319 79.5897 19.552 79.0922 20.2712Z" fill="white"/><path d="M46.0759 8.16803C46.0759 6.65513 44.8487 5.43158 43.3314 5.43158C41.814 5.43158 40.5869 6.65513 40.5869 8.16803C40.5869 9.68093 41.814 10.9045 43.3314 10.9045C44.8487 10.9045 46.0759 9.68093 46.0759 8.16803Z" fill="white"/><path d="M62.0698 17.8406C62.0698 19.3535 63.297 20.5771 64.8143 20.5771C66.3316 20.5771 67.5588 19.3535 67.5588 17.8406C67.5588 16.3277 66.3316 15.1042 64.8143 15.1042C63.3053 15.1042 62.0698 16.3277 62.0698 17.8406Z" fill="white"/><path d="M47.966 43.2375C37.5105 43.2375 29.0283 51.6949 29.0283 62.1199C29.0283 72.5449 37.5105 81.0022 47.966 81.0022C58.4215 81.0022 66.9037 72.5449 66.9037 62.1199C66.9037 51.6949 58.4215 43.2375 47.966 43.2375ZM47.8416 52.3398V50.0828H49.0771V52.439C50.155 52.6208 51.0753 53.0673 51.8547 53.7865C52.6341 54.5058 53.1896 55.3904 53.5296 56.4403C53.5462 58.6394 51.6557 59.0445 50.2296 58.0111C49.9808 57.3828 49.7072 56.895 49.4004 56.5643C49.019 56.1592 48.5464 55.9608 47.9743 55.9608C47.5929 55.9608 47.2612 56.0931 46.9793 56.3494C46.6974 56.6057 46.5565 57.0025 46.5565 57.5316C46.5565 58.2178 47.1949 58.8461 48.4635 59.4413C50.3622 60.3507 51.5479 60.9955 52.0205 61.3593C53.3057 62.3844 53.9441 63.7237 53.9441 65.3937C53.9441 67.0554 53.4881 68.4443 52.5761 69.5521C51.664 70.6599 50.4949 71.3544 49.0688 71.6272V74.1487H47.8416V71.7429C46.4984 71.7429 45.3127 71.3296 44.2763 70.4946C43.2399 69.6596 42.4936 68.5022 42.021 67.0224C41.6977 64.8481 44.1685 63.9965 45.462 65.4516C45.7936 66.3444 46.1419 66.9893 46.4901 67.3696C46.9462 67.8739 47.5349 68.1219 48.2562 68.1219C48.7454 68.1219 49.1434 67.9731 49.4668 67.6755C49.7901 67.3778 49.9477 67.0058 49.9477 66.5511C49.9477 65.5508 49.3175 64.7489 48.0655 64.1454C45.9926 63.1285 44.8318 62.5167 44.5831 62.3018C43.3311 61.2601 42.7009 59.7059 42.7009 57.6473C42.7009 56.2502 43.215 55.0183 44.2349 53.9519C45.2547 52.8854 46.457 52.3398 47.8416 52.3398Z" fill="white"/><path d="M76.6958 50.0994V33.1433C76.6958 31.8288 75.6262 30.7541 74.2996 30.7541C72.9729 30.7541 71.9033 31.8206 71.9033 33.1433V42.1298C70.4772 40.4102 68.8686 38.8394 67.1109 37.4588V25.8847C67.1109 24.5702 66.0413 23.4955 64.7146 23.4955C63.3963 23.4955 62.3184 24.5619 62.3184 25.8847V34.3255C57.8908 31.9776 52.9573 30.7458 47.9493 30.7458C47.1367 30.7458 46.349 30.8037 45.5531 30.8698V16.212C45.5531 14.8976 44.4835 13.8228 43.1568 13.8228C41.8302 13.8228 40.7606 14.8893 40.7606 16.212V31.6304C39.1272 32.0107 37.5269 32.5315 35.9681 33.1681V27.4141C35.9681 26.0996 34.8986 25.0249 33.5719 25.0249C32.2453 25.0249 31.1757 26.0914 31.1757 27.4141V35.5904H31.4161C28.6136 37.3596 26.1096 39.5669 23.9953 42.1298V25.8847C23.9953 24.5702 22.9257 23.4955 21.5991 23.4955C20.2807 23.4955 19.2028 24.5619 19.2028 25.8847V50.0994C12.5945 66.1295 20.0983 84.5324 35.9599 91.2123C51.8297 97.8922 70.046 90.3112 76.6626 74.281C79.888 66.5429 79.888 57.8375 76.6958 50.0994ZM47.8747 89.162C32.892 89.162 20.7533 77.0505 20.7533 62.1117C20.7533 47.1728 32.9003 35.0613 47.8747 35.0613C62.8573 35.0613 75.0043 47.1728 75.0043 62.1117C75.0043 77.0505 62.8573 89.162 47.8747 89.162Z" fill="white"/><path d="M64.2669 49.653H65.1872C66.2568 49.653 67.1191 48.7932 67.1191 47.7267V41.1377V40.2035C65.6764 38.7568 64.0679 37.4753 62.3267 36.3758V37.0702V47.7267C62.335 48.7932 63.1973 49.653 64.2669 49.653Z" fill="white"/></svg>