<svg width="137" height="138" viewBox="0 0 137 138" fill="none" xmlns="http://www.w3.org/2000/svg"><path d="M68.2708 18.7726C57.4852 18.7726 48.7305 27.5539 48.7305 38.398C48.7305 49.2421 57.4852 58.0234 68.2708 58.0234C79.0563 58.0234 87.811 49.2421 87.811 38.398C87.811 27.5539 79.0678 18.7726 68.2708 18.7726ZM68.1445 28.2338V25.8944H69.4182V28.3375C70.5311 28.5219 71.4835 28.9944 72.2867 29.7319C73.0898 30.481 73.6635 31.3914 74.0192 32.4862C74.0422 34.7679 72.0916 35.1943 70.6115 34.1226C70.359 33.4657 70.0722 32.9702 69.7624 32.6245C69.3723 32.2096 68.8789 32.0022 68.2937 32.0022C67.9036 32.0022 67.5594 32.1405 67.261 32.4055C66.9627 32.6706 66.825 33.0854 66.825 33.6386C66.825 34.3531 67.479 35.0099 68.7871 35.6207C70.7491 36.5657 71.9654 37.2341 72.4588 37.6144C73.7783 38.6746 74.4438 40.0805 74.4438 41.8091C74.4438 43.5377 73.9733 44.9782 73.0325 46.1306C72.0916 47.283 70.8868 47.9975 69.4182 48.2856V50.9015H68.1445V48.4008C66.7562 48.4008 65.5285 47.9629 64.4614 47.0986C63.3943 46.2343 62.6141 45.0358 62.1321 43.4916C61.7994 41.2329 64.3466 40.3456 65.6776 41.8552C66.0218 42.7886 66.3775 43.4455 66.7447 43.8489C67.2151 44.3674 67.8233 44.6325 68.5691 44.6325C69.0739 44.6325 69.487 44.4827 69.8197 44.1715C70.1525 43.8604 70.3131 43.4686 70.3131 42.9961C70.3131 41.9589 69.6706 41.1292 68.374 40.4954C66.2284 39.4352 65.0351 38.8013 64.7826 38.5824C63.4861 37.4991 62.8435 35.8858 62.8435 33.7423C62.8435 32.2903 63.3713 31.0111 64.427 29.8933C65.4826 28.787 66.7218 28.2338 68.1445 28.2338Z" fill="white"/><path d="M41.8115 43.7106C41.3525 41.1983 41.2378 38.5824 41.5361 35.9203C43.1425 21.1811 56.3376 10.5445 71.0014 12.1578C85.6652 13.7712 96.2558 27.0123 94.6609 41.74" stroke="white" stroke-width="4" stroke-miterlimit="10" stroke-linecap="round"/><path d="M15.5127 98.0578L16.7404 75.5744C16.7404 75.5744 19.2073 72.2786 21.4677 71.4488C23.7281 70.6191 36.4528 65.2605 36.4528 65.2605C36.4528 65.2605 41.5817 64.4307 41.9948 68.3489C42.4078 72.2671 39.7344 74.3299 35.0186 77.0149C30.3027 79.7 27.6293 81.613 27.6293 81.613V101.135C27.6293 101.135 33.3778 106.493 37.4855 107.738C41.5932 108.983 47.5482 109.178 47.5482 109.178L39.7459 116.807C39.7459 116.807 36.8659 118.455 33.9974 115.367C31.1289 112.278 15.5127 98.0578 15.5127 98.0578Z" fill="white"/><path d="M8.52515 107.542C8.52515 107.542 7.29742 104.65 8.52515 102.183C9.75287 99.7172 12.4034 99.7518 15.5014 100.328C20.6303 105.076 33.573 117.268 33.573 117.268C33.573 117.268 34.8007 121.371 33.573 123.226C32.3452 125.082 28.4441 126.73 26.7918 125.704C25.1396 124.678 8.52515 107.542 8.52515 107.542Z" fill="white"/><path d="M129.875 107.542C129.875 107.542 131.102 104.65 129.875 102.183C128.647 99.7172 125.997 99.7518 122.899 100.328C117.77 105.076 104.827 117.268 104.827 117.268C104.827 117.268 103.599 121.371 104.827 123.226C106.055 125.082 109.956 126.73 111.608 125.704C113.26 124.678 129.875 107.542 129.875 107.542Z" fill="white"/><path d="M123.025 98.0578L121.797 75.5744C121.797 75.5744 119.33 72.2786 117.07 71.4488C114.809 70.6191 102.085 65.2605 102.085 65.2605C102.085 65.2605 96.9558 64.4307 96.5427 68.3489C96.1296 72.2671 98.8031 74.3299 103.519 77.0149C108.235 79.7 110.908 81.613 110.908 81.613V101.135C110.908 101.135 105.16 106.493 101.052 107.738C96.9443 108.983 90.9893 109.178 90.9893 109.178L98.7916 116.807C98.7916 116.807 101.672 118.455 104.54 115.367C107.409 112.278 123.025 98.0578 123.025 98.0578Z" fill="white"/><path d="M105.848 99.0949V80.3915C104.93 79.8268 103.863 79.2045 102.67 78.5246C98.0572 75.9086 94.2937 73.3273 94.833 68.1875C94.9821 66.747 95.6247 65.5601 96.6918 64.7419C98.8489 63.0824 101.993 63.5318 102.348 63.5779L102.555 63.6125L102.739 63.6932C102.773 63.7047 104.058 64.2463 105.848 64.9954V61.7687H30.7046V65.8251C33.4698 64.6727 35.7417 63.7162 35.7876 63.6932L35.9712 63.6125L36.1777 63.5779C36.5334 63.5203 39.6773 63.0709 41.8344 64.7419C42.9015 65.5601 43.544 66.7586 43.6932 68.1875C44.2325 73.3273 40.4575 75.9086 35.8564 78.5246C33.6649 79.7692 31.9323 80.8409 30.7046 81.6361V100.005C39.5281 107.312 50.8301 105.687 55.3393 103.416C64.989 99.7057 66.8363 89.5992 66.8363 89.5992C66.8363 89.5992 68.4771 89.5992 69.7163 89.5992C71.1506 97.0206 77.5187 103.416 87.3749 105.272C97.2311 107.139 105.848 99.0949 105.848 99.0949ZM55.5574 87.4787H51.7594V91.2932C51.7594 93.4021 50.0613 95.1076 47.9615 95.1076C45.8618 95.1076 44.1636 93.4021 44.1636 91.2932V87.4787H40.3657C38.266 87.4787 36.5678 85.7732 36.5678 83.6643C36.5678 81.5554 38.266 79.8498 40.3657 79.8498H44.1636V76.0354C44.1636 73.9265 45.8618 72.221 47.9615 72.221C50.0613 72.221 51.7594 73.9265 51.7594 76.0354V79.8498H55.5574C57.6571 79.8498 59.3553 81.5554 59.3553 83.6643C59.3667 85.7732 57.6456 87.4787 55.5574 87.4787ZM91.6776 96.0296C89.4058 96.0296 87.5699 94.1857 87.5699 91.904C87.5699 89.6222 89.4058 87.7784 91.6776 87.7784C93.9495 87.7784 95.7853 89.6222 95.7853 91.904C95.7853 94.1857 93.9495 96.0296 91.6776 96.0296ZM99.0784 79.5387C101.35 79.5387 103.186 81.3825 103.186 83.6643C103.186 85.946 101.35 87.7899 99.0784 87.7899C96.8065 87.7899 94.9707 85.946 94.9707 83.6643C94.9707 81.3825 96.8065 79.5387 99.0784 79.5387ZM82.6476 87.7899C80.3757 87.7899 78.5398 85.946 78.5398 83.6643C78.5398 81.3825 80.3757 79.5387 82.6476 79.5387C84.9194 79.5387 86.7553 81.3825 86.7553 83.6643C86.7553 85.9345 84.9194 87.7899 82.6476 87.7899ZM90.863 71.2875C93.1348 71.2875 94.9707 73.1314 94.9707 75.4131C94.9707 77.6949 93.1348 79.5387 90.863 79.5387C88.5911 79.5387 86.7553 77.6949 86.7553 75.4131C86.7553 73.1314 88.5911 71.2875 90.863 71.2875Z" fill="white"/></svg>