<svg width="141" height="142" viewBox="0 0 141 142" fill="none" xmlns="http://www.w3.org/2000/svg"><path d="M17.7253 101.979C16.8869 101.979 16.072 101.529 15.6469 100.734C-0.0945463 71.4447 11.3957 34.4476 41.2607 18.2614C55.715 10.4351 72.2713 8.58522 87.8828 13.0676C103.518 17.5499 116.331 27.8427 123.959 42.0367C124.574 43.187 124.148 44.6337 123.003 45.2503C121.857 45.8669 120.417 45.44 119.803 44.2898C112.776 31.2222 100.979 21.7595 86.5838 17.621C72.165 13.4826 56.8605 15.1901 43.4926 22.4354C15.9303 37.3765 5.29038 71.4921 19.8037 98.481C20.4178 99.6312 19.9926 101.078 18.8472 101.695C18.4811 101.884 18.1032 101.979 17.7253 101.979Z" fill="white"/><path d="M121.279 57.7961L107.971 48.0488C107.356 47.5982 106.506 48.0369 106.506 48.7958V55.4838H93.7525C93.7643 57.3573 93.3037 59.2072 92.359 60.8792C92.2173 61.1282 92.0638 61.3772 91.8984 61.6144H106.506V68.3023C106.506 69.0612 107.356 69.5 107.971 69.0494L121.279 59.2902C121.787 58.9226 121.787 58.1637 121.279 57.7961Z" fill="white"/><path d="M112.127 109.592L98.8185 99.8447C98.2044 99.3941 97.3542 99.8328 97.3542 100.592V107.303H53.3064C49.6811 110.078 46.2564 112.687 45.2881 113.422H97.3542V120.086C97.3542 120.845 98.2044 121.284 98.8185 120.833L112.127 111.086C112.635 110.719 112.635 109.96 112.127 109.592Z" fill="white"/><path d="M39.4772 113.138C39.1111 112.96 38.7686 112.687 38.5088 112.331C37.5877 111.122 37.8121 109.379 39.0166 108.442L55.6674 95.6469L41.839 81.7375C41.036 80.9193 40.6345 79.8046 40.7289 78.6662C40.8352 77.5278 41.4375 76.4962 42.3822 75.844L62.8355 61.7685L51.5815 56.8119C51.1327 56.6103 50.6013 56.6696 50.2116 56.966L36.1234 67.3062C34.8953 68.2074 33.1712 67.9466 32.2619 66.7015C31.3644 65.4682 31.636 63.737 32.8641 62.8239L46.9523 52.4837C48.9362 51.037 51.5578 50.7405 53.8016 51.7366L70.9129 59.2783L71.1254 60.974C71.2317 62.0175 70.7475 63.0373 69.8855 63.6184L47.1767 79.2591L61.4892 93.6785C62.1624 94.3544 62.4812 95.2793 62.3867 96.228C62.2923 97.1292 61.8317 97.9237 61.1114 98.4573L42.3704 112.853C41.5201 113.517 40.3865 113.588 39.4772 113.138ZM67.2402 63.7132L67.193 63.6895C67.2048 63.6895 67.2284 63.7014 67.2402 63.7132Z" fill="white"/><path d="M39.3127 82.0695C39.0883 82.1287 39.0293 82.1406 38.8049 82.1999L34.2466 97.8999C34.0576 98.564 33.6561 99.1569 33.1247 99.5838L13.7107 115.165C12.1991 116.375 11.6677 118.557 12.6833 120.217C13.4627 121.497 14.8207 122.126 16.1551 122.031C16.8991 121.984 17.6313 121.711 18.2571 121.213L39.5252 104.149C40.1747 103.627 40.6589 102.916 40.8833 102.11L44.9928 87.9392L39.3127 82.0695Z" fill="white"/><path d="M93.8582 67.6382C92.7481 65.8714 90.4218 65.3496 88.6504 66.4643L74.4205 75.5001L73.7474 65.0769C73.712 64.5789 73.5821 64.1164 73.3813 63.6895L66.4258 68.6225L67.2878 81.8204C67.3823 83.2553 68.2326 84.5597 69.5079 85.2118C70.1692 85.5557 70.9014 85.698 71.6336 85.6506C72.3067 85.6032 72.968 85.4016 73.5584 85.0221L92.7009 72.8676C94.4368 71.7411 94.9682 69.4051 93.8582 67.6382Z" fill="white"/><path d="M134.954 66.5354C131.872 65.5275 129.203 62.8357 128.105 59.1835C127.88 58.4483 127.136 57.9028 126.156 57.9028C125.176 57.9028 124.42 58.4838 124.208 59.1835C123.109 62.8357 120.441 65.5157 117.358 66.5236C115.634 67.0809 115.646 69.1442 117.37 69.7015C120.452 70.7095 123.109 73.4013 124.196 77.0535C124.716 78.7729 127.597 78.7729 128.117 77.0535C129.215 73.4013 131.872 70.7095 134.954 69.7134C136.666 69.1561 136.678 67.1046 134.954 66.5354ZM128.459 71.8716C127.998 72.4289 127.42 72.7728 126.711 72.9151V74.1839H126.097V72.9744C125.424 72.9744 124.834 72.7609 124.314 72.3459C123.794 71.9309 123.417 71.3498 123.18 70.6028C123.015 69.5118 124.255 69.0849 124.904 69.8083C125.07 70.2589 125.247 70.579 125.424 70.7688C125.648 71.0178 125.944 71.1482 126.31 71.1482C126.558 71.1482 126.758 71.0771 126.912 70.9229C127.077 70.7688 127.148 70.579 127.148 70.3537C127.148 69.8557 126.829 69.4525 126.203 69.1442C125.164 68.6343 124.586 68.326 124.468 68.2193C123.842 67.6975 123.523 66.9149 123.523 65.8714C123.523 65.1718 123.783 64.5433 124.29 64.0097C124.798 63.4761 125.4 63.2033 126.097 63.2033V62.065H126.711V63.2508C127.243 63.3456 127.715 63.5709 128.105 63.9267C128.494 64.2824 128.778 64.733 128.943 65.2548C128.955 66.3576 128.01 66.571 127.29 66.0493C127.172 65.7291 127.03 65.4919 126.877 65.3259C126.688 65.1243 126.451 65.0176 126.168 65.0176C125.979 65.0176 125.814 65.0888 125.672 65.2192C125.53 65.3496 125.459 65.5512 125.459 65.8121C125.459 66.156 125.778 66.4762 126.416 66.7726C127.361 67.2351 127.963 67.5552 128.199 67.7331C128.837 68.243 129.168 68.9308 129.168 69.7608C129.144 70.6146 128.908 71.3024 128.459 71.8716Z" fill="white"/><path d="M80.762 65.1836C86.0708 65.1836 90.3745 60.8621 90.3745 55.5312C90.3745 50.2003 86.0708 45.8788 80.762 45.8788C75.4531 45.8788 71.1494 50.2003 71.1494 55.5312C71.1494 60.8621 75.4531 65.1836 80.762 65.1836Z" fill="white"/><path d="M127.549 86.5637L114.24 76.8164C113.626 76.3658 112.776 76.8045 112.776 77.5634V84.2513H79.5337L74.4794 87.4649C73.6528 87.9866 72.7081 88.2949 71.7279 88.3542C71.598 88.3661 71.4681 88.3661 71.3382 88.3661C70.4171 88.3661 69.5078 88.1526 68.6812 87.7257C67.2759 87.0024 66.2249 85.7336 65.7644 84.2513H52.1367L58.2184 90.3701H112.776V97.058C112.776 97.8169 113.626 98.2557 114.24 97.8051L127.549 88.0578C128.057 87.6902 128.057 86.9313 127.549 86.5637Z" fill="white"/></svg>