<svg width="120" height="120" viewBox="0 0 120 120" fill="none" xmlns="http://www.w3.org/2000/svg"><path d="M57.1699 57.2201L66.5999 67.06C66.6499 67.11 66.7399 67.12 66.7899 67.06L92.8699 40.8" stroke="#1D1D1D" stroke-width="4" stroke-miterlimit="10" stroke-linecap="round"/><path d="M65.2199 74.15L53.2399 61.65C50.8999 59.21 50.7399 55.27 53.1099 52.85C55.5699 50.35 59.5799 50.39 61.9899 52.9L66.7099 57.82L81.0299 43.39C80.0499 41.51 78.0599 40.21 75.7399 40.21H50.0699C46.7999 40.21 44.1499 42.8 44.1499 45.98V67.9C44.1499 69.4 44.8499 70.82 46.0599 71.75L59.8399 82.35C61.4499 83.59 63.6899 83.61 65.3199 82.4L79.6899 71.75C80.9399 70.82 81.6799 69.38 81.6799 67.85V60.31L67.9199 74.17C67.1699 74.93 65.9499 74.91 65.2199 74.15Z" fill="#1D1D1D"/><path d="M62.12 106.48C87.8565 106.48 108.72 85.6165 108.72 59.88C108.72 34.1436 87.8565 13.28 62.12 13.28C36.3835 13.28 15.52 34.1436 15.52 59.88C15.52 85.6165 36.3835 106.48 62.12 106.48Z" stroke="#1D1D1D" stroke-width="4" stroke-miterlimit="10"/><path d="M85.0802 57.7501V70.5701C85.0802 71.9601 84.4002 73.2901 83.2602 74.1301L64.8202 87.8001C63.3802 88.8701 61.3702 88.8501 59.9502 87.7601L42.2802 74.1601C41.1702 73.3001 40.5302 72.0201 40.5302 70.6501V42.5401C40.5302 39.4501 43.1302 36.9301 46.3302 36.9301H79.2702C81.7902 36.9301 83.9302 38.4901 84.7302 40.6601L87.4402 38.0201C85.8202 35.2301 82.7702 33.3401 79.2702 33.3401H46.3302C41.1502 33.3401 36.9302 37.4701 36.9302 42.5401V70.6501C36.9302 73.1501 38.0802 75.4701 40.0802 77.0101L57.7502 90.6101C59.1102 91.6601 60.7602 92.1801 62.4002 92.1801C64.0002 92.1801 65.6002 91.6801 66.9402 90.6901L85.4002 77.0201C87.4502 75.5001 88.6702 73.0901 88.6702 70.5701V53.9501L85.0802 57.7501Z" fill="#1D1D1D"/></svg>