<svg width="29" height="29" viewBox="0 0 29 29" fill="none" xmlns="http://www.w3.org/2000/svg">
<circle cx="14.5" cy="14.5" r="14.5" fill="#99A4AA"/>
<path d="M19.6637 11.5559C19.6719 11.6625 19.6719 11.7691 19.6719 11.8757C19.6719 15.1269 16.9911 18.8731 12.0914 18.8731C10.5818 18.8731 9.17957 18.4696 8 17.7691C8.21447 17.7919 8.42067 17.7995 8.6434 17.7995C9.88894 17.7995 11.0355 17.4112 11.9511 16.7488C10.7798 16.7259 9.79822 16.0178 9.46001 15.0432C9.625 15.066 9.78996 15.0813 9.9632 15.0813C10.2024 15.0813 10.4416 15.0508 10.6643 14.9975C9.44353 14.7691 8.5279 13.7792 8.5279 12.5838V12.5534C8.88258 12.7361 9.29505 12.8503 9.7322 12.8655C9.01456 12.4239 8.5444 11.6701 8.5444 10.8173C8.5444 10.3604 8.67636 9.94166 8.90733 9.57618C10.2189 11.0686 12.1903 12.0432 14.401 12.1498C14.3597 11.967 14.335 11.7767 14.335 11.5863C14.335 10.231 15.5228 9.12695 16.9993 9.12695C17.7665 9.12695 18.4593 9.42391 18.946 9.9036C19.5482 9.79701 20.1256 9.59141 20.637 9.3097C20.439 9.88077 20.0183 10.3605 19.4657 10.665C20.0019 10.6117 20.5215 10.4747 21 10.2843C20.6371 10.7716 20.1834 11.2056 19.6637 11.5559V11.5559Z" fill="white"/>
</svg>
